<?xml version="1.0" encoding="UTF-8" standalone="no"?>
<svg
   xmlns:dc="http://purl.org/dc/elements/1.1/"
   xmlns:cc="http://creativecommons.org/ns#"
   xmlns:rdf="http://www.w3.org/1999/02/22-rdf-syntax-ns#"
   xmlns:svg="http://www.w3.org/2000/svg"
   xmlns="http://www.w3.org/2000/svg"
   width="1602"
   height="551"
   viewBox="0 0 1602 551"
   version="1.1"
   id="svg8">
  <defs
     id="defs2">
    <marker
       style="overflow:visible"
       id="marker5921"
       refX="0"
       refY="0"
       orient="auto">
      <path
         transform="matrix(-1.1,0,0,-1.1,-1.1,0)"
         d="M 8.7185878,4.0337352 -2.2072895,0.01601326 8.7185884,-4.0017078 c -1.7454984,2.3720609 -1.7354408,5.6174519 -6e-7,8.035443 z"
         style="fill:#666666;fill-opacity:1;fill-rule:evenodd;stroke:#666666;stroke-width:0.625;stroke-linejoin:round;stroke-opacity:1"
         id="path5919" />
    </marker>
    <marker
       style="overflow:visible"
       id="Arrow2Lend"
       refX="0"
       refY="0"
       orient="auto">
      <path
         transform="matrix(-1.1,0,0,-1.1,-1.1,0)"
         d="M 8.7185878,4.0337352 -2.2072895,0.01601326 8.7185884,-4.0017078 c -1.7454984,2.3720609 -1.7354408,5.6174519 -6e-7,8.035443 z"
         style="fill:#666666;fill-opacity:1;fill-rule:evenodd;stroke:#666666;stroke-width:0.625;stroke-linejoin:round;stroke-opacity:1"
         id="path5179" />
    </marker>
    <marker
       style="overflow:visible"
       id="Arrow1Lend"
       refX="0"
       refY="0"
       orient="auto">
      <path
         transform="matrix(-0.8,0,0,-0.8,-10,0)"
         style="fill:#000000;fill-opacity:1;fill-rule:evenodd;stroke:#000000;stroke-width:1pt;stroke-opacity:1"
         d="M 0,0 5,-5 -12.5,0 5,5 Z"
         id="path5161" />
    </marker>
    <marker
       style="overflow:visible"
       id="Arrow1Lstart"
       refX="0"
       refY="0"
       orient="auto">
      <path
         transform="matrix(0.8,0,0,0.8,10,0)"
         style="fill:#000000;fill-opacity:1;fill-rule:evenodd;stroke:#000000;stroke-width:1pt;stroke-opacity:1"
         d="M 0,0 5,-5 -12.5,0 5,5 Z"
         id="path5158" />
    </marker>
    <linearGradient
       id="b"
       x1="131.75"
       x2="111.82"
       y1="738.96997"
       y2="716.10999"
       gradientUnits="userSpaceOnUse">
      <stop
         stop-color="#4b4"
         offset="0"
         id="stop17" />
      <stop
         stop-color="#68cc68"
         offset="1"
         id="stop19" />
    </linearGradient>
    <filter
       id="a"
       x="-0.36000001"
       y="-0.36000001"
       width="1.72"
       height="1.72">
      <feGaussianBlur
         stdDeviation="2.46429"
         id="feGaussianBlur2" />
    </filter>
  </defs>
  <metadata
     id="metadata5">
    <rdf:RDF>
      <cc:Work
         rdf:about="">
        <dc:format>image/svg+xml</dc:format>
        <dc:type
           rdf:resource="http://purl.org/dc/dcmitype/StillImage" />
        <dc:title></dc:title>
      </cc:Work>
    </rdf:RDF>
  </metadata>
  <g
     id="layer8"
     style="display:inline">
    <rect
       style="display:inline;fill:none;stroke:#333333;stroke-width:1;stroke-miterlimit:4;stroke-dasharray:none;stroke-opacity:1"
       id="rect3071"
       width="500"
       height="500"
       x="0.5"
       y="50.5" />
    <g
       id="g3175"
       transform="translate(196.7681,118.06422)"
       style="display:inline">
      <g
         id="g3173">
        <g
           id="g3171"
           transform="translate(-185.2681,-68.561428)">
          <rect
             x="37"
             y="0"
             width="0"
             height="0"
             fill="none"
             stroke="#000000"
             pointer-events="all"
             id="rect3163" />
          <rect
             x="0"
             y="300"
             width="71.730003"
             height="190"
             fill="none"
             stroke="none"
             pointer-events="all"
             id="rect3165" />
          <ellipse
             cx="34.900002"
             cy="315.67999"
             rx="15.725868"
             ry="15.682784"
             fill="transparent"
             stroke="#000000"
             pointer-events="all"
             id="ellipse3167"
             style="fill:#008080" />
          <path
             d="m 16.32,481.31 c 0,4.79 3.95,8.69 8.81,8.69 4.88,0 8.83,-3.88 8.83,-8.69 v -72.82 h 3.93 l -0.02,72.82 c 0,4.79 3.95,8.69 8.81,8.69 4.85,0 8.8,-3.88 8.8,-8.69 l 0.04,-125.56 h 3.88 v 46.28 c 0,9.31 12.33,9.31 12.29,0 v -47.26 c 0,-10.28 -6.13,-20.35 -18.35,-20.35 L 18.1,334.38 C 6.96,334.38 0,343.32 0,354.49 v 47.54 c 0,9.25 12.39,9.25 12.39,0 v -46.28 h 3.95 z"
             fill="none"
             stroke="#000000"
             stroke-miterlimit="10"
             pointer-events="all"
             id="path3169"
             style="fill:#008080" />
        </g>
      </g>
    </g>
    <g
       id="g5408"
       transform="matrix(1.2671326,0,0,1.2671326,-44.9083,21.92587)">
      <path
         d="m 229.46816,78.250809 c 0,0 -0.27005,-0.696635 0.80933,-1.279605 0,0 0.13443,-0.450945 0.87659,-0.54042 0,0 0.11329,-0.585435 1.03493,-0.40541 0,0 0.089,-0.42315 0.53891,-0.469635 0,0 0.005,-0.02115 0.0164,-0.0501 0.0356,-0.09147 0.13297,-0.266945 0.32099,-0.13045 0.24671,0.18055 0.60715,0.53995 1.05709,0.62997 0.44947,0.0895 0.29227,0.584365 0.29227,0.584365 l 0.31441,0.583475 -0.33768,0.18144 c 0,0 0.31499,0.673865 0,1.14505 -0.31498,0.473765 -0.71894,1.530865 -0.85441,1.97925 -0.13444,0.44942 -0.13444,0.83265 -0.13444,1.417535 0,0.58388 0.31499,4.541315 0.74109,6.070115 0.42823,1.5288 1.4393,2.744085 1.32715,3.55092 0,0 0,-0.11168 0.62883,-0.134435 0.63043,-0.02105 0.58549,-0.202215 1.03492,-0.13444 0.44941,0.06825 0.53942,0.18092 0.98833,0.06825 0.45097,-0.113325 0.54041,-0.247755 1.12535,-0.13602 0.58437,0.112195 0.58437,0.112195 0.58437,0.112195 0,0 0.09,-0.22393 0.53943,-0.22393 0.45045,0 0.80882,-0.202685 1.30435,-0.404485 0.49435,-0.202165 0.74212,-0.17989 0.9676,-0.17989 0.22445,0 0.96605,-0.270045 1.52828,-0.31446 0.5626,-0.045 0.89884,-0.09053 1.0343,-0.20278 0.13547,-0.11272 0.29167,-0.135005 0.29167,-0.135005 0,0 0.0225,-1.1238 -0.78608,-0.98935 -0.80942,0.135505 -1.97919,0.53942 -2.74307,-0.04485 -0.7644,-0.5844 0,-1.05658 -0.31498,-1.75428 -0.31499,-0.69615 -0.58489,-0.651585 -0.33725,-0.98885 0,0 -0.22545,-0.11171 -0.1799,-0.45045 0.0442,-0.33665 -0.0232,-0.898835 -0.27052,-0.943795 -0.24715,-0.04495 -0.6961,-0.04495 -0.85331,-0.40394 -0.15824,-0.36095 0.35994,-0.7644 0.35994,-0.7644 0,0 -1.25935,0.0213 -1.8665,-0.653135 -0.60715,-0.673935 -1.28206,-1.550565 -0.71991,-1.81951 0.56171,-0.271005 2.87756,-1.394805 2.87756,-1.394805 0,0 0.85442,-2.113165 2.85531,-3.214315 2.00099,-1.10152 4.02518,-1.687435 5.84564,-0.2927 1.8215,1.39385 2.36145,2.719865 2.36145,2.94531 0,0.2245 0.0667,0.31497 0.13392,0.675405 0.0682,0.359035 -0.0672,0.627385 0.15775,0.69615 0.22497,0.06723 0.18104,0.06723 0.0454,0.405515 -0.13501,0.33664 -0.1572,0.80882 -0.29173,0.787055 0,0 -0.1132,0.898465 -0.42819,1.86503 -0.31446,0.96605 -0.47118,1.506515 -0.0445,3.417 0,0 0.60715,-0.179 0.6744,-0.0447 0.0672,0.135055 0.45045,0.71942 0.6521,0.787155 0.20221,0.06722 0.94537,0.24725 1.4621,0.561715 0.51664,0.313945 2.02315,1.66375 2.81033,2.675785 0.78658,1.01215 1.82193,2.7426 1.64149,3.777945 -0.18052,1.03392 -0.51664,1.1896 -0.5844,2.088955 -0.0673,0.9009 0.0442,2.945815 -0.22497,5.283951 -0.27051,2.33968 -0.35999,5.68998 -0.22498,8.67971 0.135,2.99037 0.15769,5.62068 0.44995,7.55491 0.29273,1.93271 0.42717,2.76588 0.20168,3.01209 -0.22445,0.24816 -0.13392,0.78708 -0.13392,0.78708 0,0 0.20217,0.0225 0.0899,0.49447 -0.11271,0.47316 -0.27046,2.60857 -0.58491,4.00292 -0.31446,1.39377 -0.65212,3.28251 -0.67491,3.61968 -0.0212,0.33727 0,0.71992 -0.13444,1.01217 -0.13547,0.29218 0.0662,0.62883 0.0662,1.01151 0,0.38219 0.78869,3.50745 0.58643,4.06972 -0.20321,0.5616 -0.92212,3.59743 -0.92212,3.59743 0,0 0.83214,1.84429 1.28207,3.6202 0.44993,1.77599 1.64158,5.46347 1.77601,9.01555 0.13446,3.55279 0.11224,6.4986 0.22548,6.58869 0.1122,0.0891 1.07887,1.05645 1.12432,1.50593 0.0451,0.44949 -0.0225,1.59667 0.0451,2.31601 0.0673,0.71989 -0.0451,1.07884 0,1.84434 0.0446,0.76382 -0.0218,1.07887 -0.38313,1.41547 -0.35953,0.33778 -2.13544,0.74217 -3.50752,1.70863 -1.37054,0.96663 -3.16975,1.59763 -4.58632,1.52932 -1.41607,-0.0677 -4.11515,-0.60704 -4.0697,-1.23772 0.0452,-0.62926 -0.11267,-1.10086 0.33778,-1.6631 0.44942,-0.56263 1.506,-0.69673 1.8882,-1.1021 0.3822,-0.40383 0.0453,-0.3589 0.58437,-0.83258 0.53943,-0.47056 0.87717,-0.87627 1.21433,-1.28103 0.33727,-0.40507 0.56172,-0.33734 0.87666,-0.87664 0.31489,-0.53995 0.49491,-1.07886 0.49491,-1.07886 0,0 0.09,-0.4948 0.11176,-0.60722 0.0239,-0.11313 0.29272,-0.78752 -0.17949,-1.03445 -0.4717,-0.24705 -2.98986,-2.33852 -3.19204,-4.69939 -0.2032,-2.36086 -1.50806,-7.44161 -1.82253,-9.01593 -0.31395,-1.57393 -0.96657,-2.69812 -0.96657,-2.69812 0,0 0.13495,2.4736 -0.20217,4.72136 -0.33726,2.24908 -0.71998,3.28306 -1.23713,4.69956 -0.51715,1.416 -0.47221,1.6409 0.0225,2.51748 0.49442,0.87778 0.89935,2.54139 0.85388,4.07082 -0.0442,1.52867 -0.0442,1.95592 -0.18,2.00089 -0.13445,0.045 -0.76389,0.56218 -3.41649,0.40595 -2.65311,-0.15864 -3.64296,-0.0683 -4.90227,0.33616 -1.25831,0.40449 -4.90076,0.40449 -5.41845,-0.83355 0,0 0,-0.4929 0,-0.74011 0,-0.24886 0.0673,-1.16934 1.39429,-1.28201 1.32607,-0.11288 1.73099,-0.53898 2.47314,-0.8105 0.74215,-0.26901 1.41656,-0.56126 1.41656,-0.56126 0,0 0.0219,-2.2487 0.67389,-3.41739 0.65264,-1.16983 1.2593,-1.03501 1.30431,-2.3391 0.0454,-1.30395 -0.26948,-2.49658 -0.44944,-3.93421 -0.17946,-1.43847 -0.58544,-5.1036 -0.74265,-7.24092 -0.15672,-2.135 -0.44944,-4.06815 -0.0213,-6.00303 0.42618,-1.93307 -0.24872,-4.40579 0.44944,-6.74444 0.69613,-2.33967 1.16832,-6.2066 1.16832,-6.2066 0,0 -0.18047,-0.22497 -1.07935,-0.6754 -0.89937,-0.44841 -1.16881,-1.05609 -0.9666,-1.64046 0.20272,-0.58489 0.62992,-4.24965 0.74213,-6.38611 0.11326,-2.13587 0.8099,-3.62022 0.56269,-6.83443 -0.24772,-3.21531 0.65113,-7.352141 0.80836,-8.003866 0.15773,-0.65211 -1.46052,0.292205 -2.54036,0.38118 -1.07834,0.08948 -1.07834,0.08948 -1.07834,0.08948 0,0 0.0214,-1.550445 -0.65316,-1.999925 0,0 -5.19298,-0.876615 -5.46395,-2.45035 0,0 -0.94285,-1.77705 -1.01059,-4.4979 -0.0683,-2.720345 0.0225,-5.890115 0.15723,-7.622115 0.13445,-1.73097 -0.6744,-2.11317 -0.78764,-2.71982 l -0.11223,-1.327535"
         style="display:inline;fill:#99999f;fill-opacity:1;fill-rule:nonzero;stroke:#000000;stroke-width:0.375;stroke-miterlimit:4;stroke-dasharray:none;stroke-opacity:1"
         id="path5396" />
      <path
         d="m 249.61208,58.63079 c 0,0 -3.81333,0.14333 -5.476,3.86133 0,0 6.57133,3.25267 3.72467,5.253334 l -5.19867,3.48333 c 0,0 -0.352,-0.39533 -1.08667,0.068 -0.734,0.462 -6.97266,4.08867 -10.42133,5.134 0,0 -1.354,0.134 -1.07267,1.395335 0.28134,1.26 1.226,2.922665 2.35734,2.108 1.12933,-0.816 2.38666,-1.916665 4.30066,-2.299335 1.914,-0.386 7.06467,-3.94333 6.572,-5.37733 l 5.584,-3.522 c 0,0 1.24134,-0.475335 2.02934,0.774 l 2.89333,-1.927335 c 0,0 -2.22133,-2.707329 -4.206,-8.951329"
         style="display:inline;fill:#99999f;fill-opacity:1;fill-rule:nonzero;stroke:#000000;stroke-width:0.375;stroke-miterlimit:4;stroke-dasharray:none;stroke-opacity:1"
         id="path5398" />
      <path
         d="m 210.83385,97.874584 c 0,0 -0.26147,-0.46763 -0.44819,-0.822195 -0.18725,-0.354065 -0.16899,-0.57949 -0.26206,-0.859865 -0.0926,-0.27922 -0.18615,-1.00782 -0.31692,-1.30694 -0.13127,-0.29921 -0.28035,-0.3363 -0.4859,-0.31804 0,0 -0.31746,-0.52193 -0.71026,-0.447085 -0.3917,0.07419 -0.26096,0.37339 -0.16786,0.80279 0.0936,0.430465 0.29863,0.934045 0.35568,1.53131 0.0559,0.59783 0.14956,0.897035 0.37177,1.326345 0.226,0.42998 0.69201,0.9718 0.76734,1.49537 0.0743,0.52241 0.22436,0.933556 0.37396,1.511976 0.14848,0.57949 0.63385,1.53243 0.31747,2.35566 -0.31747,0.82168 -1.0288,3.28654 -1.42052,4.5758 -0.3928,1.28869 -1.51306,2.63387 -2.03662,4.24109 -0.52299,1.60451 -0.80279,1.86711 -0.80279,1.86711 0,0 -0.42888,-0.0748 -0.87763,0.20659 -0.44872,0.27873 -0.46813,0.0175 -0.87869,0.13028 -0.41106,0.11136 -0.54183,0.093 -0.54183,0.093 0,0 -0.33629,-0.67259 -0.57895,-0.67259 -0.24214,0 -0.61557,0.0753 -0.46703,0.83996 0,0 -0.63444,0.35619 -1.00839,0.35619 -0.37504,0 -0.44929,0.0931 -0.65426,0.13077 -0.20556,0.0363 -0.6355,-0.24377 -1.14021,-0.31804 -0.50311,-0.0753 -1.32635,-0.26145 -1.32635,-0.26145 0,0 -0.82107,-0.13133 -1.00834,-0.13133 -0.18619,0 -0.27926,-0.0565 0.44874,-0.29864 0.72859,-0.24213 0.87761,-0.69192 0.46653,-1.14015 -0.41111,-0.44717 -0.39121,-0.42882 -0.37345,-0.76618 0.0189,-0.3363 0.35462,-0.48426 -0.33572,-0.87657 0,0 0.39222,-0.35513 0.18614,-0.6161 -0.20497,-0.26145 -0.50418,-0.61658 -0.29863,-0.85928 0.20557,-0.24484 0.89645,-0.80496 0.57898,-1.0471 -0.31801,-0.24265 -1.51304,-1.10251 -1.75626,-1.28869 -0.24323,-0.18721 -0.31746,-0.31856 -0.24323,-0.58001 0.0764,-0.26047 0.056,-0.39173 -0.13073,-0.80282 -0.18725,-0.41004 -1.13858,-2.07269 -2.68987,-2.50258 -1.55124,-0.42992 -3.82889,-0.65376 -5.9215,0.27873 -2.09254,0.93405 -2.8394,3.79286 -2.3729,5.77354 0.46654,1.98012 1.32635,2.40836 2.1297,3.40063 0.80337,0.98842 1.86769,2.01557 1.66265,2.31527 0,0 -0.24266,0.30026 -0.24266,0.579 0,0.28143 0.0753,0.39335 -0.0753,0.61609 -0.14907,0.22494 -0.18564,0.48639 -0.28033,0.80385 -0.0936,0.31859 -0.6898,0.84103 -1.17675,1.66265 -0.48484,0.82277 -1.60615,1.68206 -1.84828,2.72755 -0.24433,1.04598 -0.57953,2.46597 -0.57953,3.1757 0,0.70968 0.24266,3.17569 0.56012,3.99789 0.31695,0.82162 0.4676,1.62392 0.71026,2.3169 0.24271,0.69036 0.24271,0.69036 0.24271,0.69036 0,0 0.0182,-0.0743 -0.0565,0.20504 -0.0743,0.28086 -0.0926,0.5424 0.0565,0.89802 0.14846,0.35464 0.42988,0.6721 0.54076,1.75462 0.113,1.08436 0.33736,1.27205 0.0764,1.73738 -0.26154,0.46773 -0.44876,0.37357 -0.0571,0.82285 0.3923,0.44774 0.65432,0.65433 0.65432,0.65433 0,0 -0.48642,0.42947 -0.52299,1.04549 -0.0376,0.61647 0.31795,1.12176 0.26097,1.30859 -0.056,0.18501 -0.33524,0.89538 -0.46654,0.89538 -0.13024,0 -0.97122,-0.13033 -0.84049,0.69135 0.13133,0.8222 0.59783,0.65383 0.41056,0.97232 -0.18669,0.31795 -0.72852,0.67188 -0.57895,1.19551 0.14906,0.52213 0.3352,0.50423 0.16732,0.95188 -0.16732,0.44981 -0.63435,1.25273 -0.63435,1.25273 0,0 0.61609,0.3722 0.69085,0.4481 0.0748,0.0742 -0.0748,0.82118 0.0565,0.82118 0.12971,0 0.2233,0 0.2233,0 0,0 -0.0737,0.56167 0.0571,1.1966 0.13073,0.63433 0.27922,1.02674 0.27922,1.02674 0,0 0.14961,1.14007 0.4676,1.68089 0.31693,0.54121 0.6344,1.25202 0.6344,1.25202 0,0 -0.50416,-0.18663 -0.72746,-0.31795 -0.22493,-0.13015 -0.44823,-0.52301 -1.40168,-0.89583 -0.95239,-0.37453 -1.92362,-0.71025 -2.05495,-0.67259 -0.13072,0.0363 -1.49365,0.57881 -1.77509,2.29757 -0.27925,1.71865 -0.46598,3.43674 -0.39173,4.61396 0.0743,1.17785 -0.46649,2.91481 0,3.97903 0.46707,1.06501 1.79342,2.82105 2.83942,2.9701 1.04654,0.15071 1.71864,-0.37283 2.1862,-0.54227 0.4665,-0.16837 0.67259,-0.80168 0.3546,-1.68041 -0.31746,-0.87819 -0.39227,-0.69092 -0.24267,-1.13966 0.15009,-0.4481 0.46756,-0.93469 0.46756,-0.93469 0,0 1.51308,2.61679 3.8478,3.94201 2.33524,1.32587 5.3985,2.69037 7.65891,3.62382 2.26049,0.93469 3.73641,1.94358 5.19299,1.51312 1.45761,-0.42879 2.95183,-1.39937 3.45603,-1.86643 0.50362,-0.46769 0.44876,-1.12096 0.42887,-1.99908 -0.0181,-0.87819 -0.6721,-2.18615 -0.68984,-2.24201 -0.0195,-0.0561 2.35297,0.29969 3.62283,-0.93431 1.27095,-1.23251 1.66374,-1.81163 1.72024,-2.74676 0.0549,-0.93357 0.0363,-1.83 -0.59942,-2.989 -0.63436,-1.15792 -2.16737,-3.34298 -2.83833,-4.46432 -0.67203,-1.12025 -1.75625,-2.25991 -2.59727,-3.21244 -0.84155,-0.95389 -1.30752,-1.2145 -1.77511,-1.66264 -0.46653,-0.44928 -0.57897,-0.48588 -0.41004,-0.69085 0.16737,-0.20656 0.46654,-0.35564 0.48483,-1.14126 0.0195,-0.78443 0.26203,-0.87708 -0.0181,-1.41898 -0.2798,-0.54119 -0.39222,-0.46643 -0.2798,-1.21449 0.11194,-0.74824 0,-0.54227 -0.037,-1.21415 -0.039,-0.6726 -0.0937,-1.02786 -0.1496,-1.83122 -0.0565,-0.8033 0.0743,-3.60466 -0.0377,-5.0257 -0.11246,-1.4188 -0.39226,-4.33303 -0.57949,-5.04328 0,0 0.42989,-1.60666 0.95288,-2.44663 0.52414,-0.84045 0.56123,-1.53294 0.97286,-1.84987 0.40999,-0.31693 0.72745,-0.57896 0.97068,-1.40116 0.24214,-0.82109 0.24214,-1.82997 0.728,-2.42941 0.48536,-0.59668 1.38236,-1.56742 1.30809,-1.94244 -0.0753,-0.3729 -0.52356,-0.61552 -0.98954,-0.33524 -0.46702,0.28038 -0.8598,0.61561 -0.97231,0.93414 -0.11243,0.31799 -0.35513,0.67312 -0.56066,0.54018 -0.205,-0.13068 -0.46707,-0.44602 -0.52357,-0.65376 -0.0549,-0.20495 0.26317,-0.42882 0.26317,-0.42882 0,0 2.12915,-0.87756 2.95184,-1.38228 0.82113,-0.50416 1.64439,-1.40007 2.16681,-2.68989 0.5225,-1.28868 1.66322,-3.88644 1.86823,-7.54755 0.20498,-3.66102 0.0554,-4.63171 0.31746,-5.10094 0.26206,-0.46543 0.48642,-1.11968 0.0383,-2.18458 -0.44929,-1.065376 -0.74847,-1.699176 -1.15902,-2.035471 0,0 -0.2249,-0.429965 -0.2249,-0.916355 0,-0.48532 -0.18564,-1.437225 -0.41002,-1.643815 -0.22384,-0.204465 -0.59886,-0.40999 -0.5596,-0.01815 0.0359,0.393365 0.22383,1.83161 0.0737,1.775115"
         style="display:inline;fill:#99999f;fill-opacity:1;fill-rule:nonzero;stroke:#00000f;stroke-width:0.375;stroke-miterlimit:4;stroke-dasharray:none;stroke-opacity:1"
         id="path5400" />
    </g>
    <g
       id="g16"
       transform="matrix(0.16435848,0,0,0.16435848,153.17109,87.06957)"
       style="opacity:0.65">
      <path
         transform="matrix(5.1965,0,0,5.3726,-738.86,-644.43)"
         d="m 324.45,213.01 a 86.051,83.23 0 1 1 -172.1,0 86.051,83.23 0 1 1 172.1,0 z"
         fill="none"
         stroke="#ff0000"
         stroke-width="20"
         id="path2" />
      <path
         d="M 166.83,166.83 833.16,833.16"
         fill="none"
         stroke="#ff0000"
         stroke-width="100"
         id="path4" />
    </g>
    <g
       id="g3275"
       transform="matrix(0.97456165,0,0,0.97456165,-8.929,60.1048)"
       style="display:inline">
      <path
         d="m 104.5119,151.63857 c -14.5,5.83 -30.82,0.62 -40.09,-12.8 -9.27,-13.42 -9.27,-31.84 0,-45.259998 9.27,-13.41 25.59,-18.62 40.09,-12.79 -0.11,-23.63 13.32,-44.85 33.72,-53.26 20.39,-8.41 43.46,-2.25 57.89,15.47 9.27,-25.11 31.74,-41.58 56.71,-41.58 24.98,0 47.44,16.47 56.71,41.58 14.83,-14.47 35.96,-18.55 54.5,-10.52 18.53,8.02 31.23,26.76 32.75,48.31 14.51,-5.83 30.83,-0.62 40.1,12.79 9.26,13.419998 9.26,31.839998 0,45.259998 -9.27,13.42 -25.59,18.63 -40.1,12.8 -1.58,22.77 -15.63,42.3 -35.65,49.52 -20.01,7.22 -42.07,0.73 -55.96,-16.46 -11.04,19.89 -30.91,32.06 -52.35,32.06 -21.43,0 -41.3,-12.17 -52.34,-32.06 -10.54,22.95 -40.57,34.16 -67.08,25.03 -26.5,-9.13 -39.44,-35.14 -28.9,-58.09 z"
         fill="none"
         stroke="#000000"
         stroke-linejoin="round"
         stroke-miterlimit="10"
         pointer-events="all"
         id="path3267"
         style="display:inline" />
      <ellipse
         cx="117.60191"
         cy="231.92857"
         rx="26.174095"
         ry="12.752443"
         fill="transparent"
         stroke="#000000"
         pointer-events="all"
         id="ellipse3269"
         style="display:inline;fill:none" />
      <ellipse
         cx="87.071899"
         cy="262.62857"
         rx="16.576927"
         ry="8.5016289"
         fill="transparent"
         stroke="#000000"
         pointer-events="all"
         id="ellipse3271"
         style="display:inline;fill:none" />
      <ellipse
         cx="62.2019"
         cy="285.29855"
         rx="10.469638"
         ry="6.1400652"
         fill="transparent"
         stroke="#000000"
         pointer-events="all"
         id="ellipse3273"
         style="display:inline;fill:none" />
    </g>
    <rect
       style="display:inline;fill:none;stroke:#333333;stroke-width:1;stroke-miterlimit:4;stroke-dasharray:none;stroke-opacity:1"
       id="rect1075"
       width="500"
       height="500"
       x="550.5"
       y="50.5" />
    <path
       d="m 958.08828,358.63939 c 0,0 -0.5401,-1.39327 1.6187,-2.55921 0,0 0.2688,-0.90189 1.7531,-1.08084 0,0 0.2266,-1.17087 2.0699,-0.81082 0,0 0.178,-0.8463 1.0778,-0.93927 0,0 0.01,-0.0423 0.033,-0.1002 0.071,-0.18294 0.266,-0.53389 0.642,-0.2609 0.4934,0.3611 1.2143,1.0799 2.1142,1.25994 0.8989,0.179 0.5845,1.16873 0.5845,1.16873 l 0.6289,1.16695 -0.6754,0.36288 c 0,0 0.63,1.34773 0,2.2901 -0.63,0.94753 -1.4379,3.06173 -1.7088,3.9585 -0.2689,0.89884 -0.2689,1.6653 -0.2689,2.83507 0,1.16776 0.63,9.08263 1.4822,12.14023 0.8564,3.0576 2.8786,5.48817 2.6543,7.10184 0,0 0,-0.22336 1.2576,-0.26887 1.2609,-0.0421 1.171,-0.40443 2.0699,-0.26888 0.8988,0.13649 1.0788,0.36184 1.9766,0.13649 0.902,-0.22665 1.0809,-0.49551 2.2507,-0.27204 1.1688,0.22439 1.1688,0.22439 1.1688,0.22439 0,0 0.18,-0.44786 1.0788,-0.44786 0.9009,0 1.6177,-0.40537 2.6087,-0.80897 0.9887,-0.40433 1.4843,-0.35978 1.9352,-0.35978 0.4489,0 1.9321,-0.54009 3.0566,-0.62892 1.1252,-0.09 1.7977,-0.18106 2.0686,-0.40556 0.2709,-0.22544 0.5833,-0.27001 0.5833,-0.27001 0,0 0.045,-2.2476 -1.5721,-1.9787 -1.6189,0.27101 -3.9584,1.07884 -5.4862,-0.0897 -1.5288,-1.1688 0,-2.11316 -0.6299,-3.50856 -0.63,-1.3923 -1.1698,-1.30317 -0.6745,-1.9777 0,0 -0.4509,-0.22342 -0.3598,-0.9009 0.088,-0.6733 -0.046,-1.79767 -0.5411,-1.88759 -0.4943,-0.0899 -1.3922,-0.0899 -1.7066,-0.80788 -0.3165,-0.7219 0.7199,-1.5288 0.7199,-1.5288 0,0 -2.5187,0.0426 -3.733,-1.30627 -1.2143,-1.34787 -2.5641,-3.10113 -1.4398,-3.63902 1.1234,-0.54201 5.7551,-2.78961 5.7551,-2.78961 0,0 1.7088,-4.22633 5.7106,-6.42863 4.002,-2.20304 8.0504,-3.37487 11.6913,-0.5854 3.64302,2.7877 4.72292,5.43973 4.72292,5.89062 0,0.449 0.1334,0.62994 0.2678,1.35081 0.1365,0.71807 -0.1344,1.25477 0.3155,1.3923 0.45,0.13447 0.3621,0.13447 0.091,0.81103 -0.27,0.67328 -0.3144,1.61764 -0.5834,1.57411 0,0 -0.2264,1.79693 -0.8564,3.73006 -0.6289,1.9321 -0.9424,3.01303 -0.089,6.834 0,0 1.2143,-0.358 1.3488,-0.0894 0.1344,0.27011 0.9009,1.43884 1.3042,1.57431 0.4044,0.13444 1.8907,0.4945 2.9242,1.12343 1.0333,0.62789 4.0463,3.3275 5.6206,5.35157 1.5732,2.0243 3.6439,5.4852 3.283,7.55589 -0.361,2.06784 -1.0333,2.3792 -1.1688,4.17791 -0.1346,1.8018 0.088,5.89163 -0.4499,10.5679 -0.541,4.67936 -0.72,11.37996 -0.45,17.35943 0.27,5.98073 0.3154,11.24136 0.8999,15.10982 0.5855,3.86541 0.8544,5.53175 0.4034,6.02418 -0.4489,0.49632 -0.2679,1.57415 -0.2679,1.57415 0,0 0.4044,0.045 0.1799,0.98895 -0.2254,0.94632 -0.5409,5.21714 -1.1698,8.00583 -0.6289,2.78754 -1.3043,6.56503 -1.3498,7.23937 -0.042,0.67453 0,1.43984 -0.2689,2.02433 -0.271,0.58437 0.1324,1.25766 0.1324,2.02303 0,0.76438 1.5773,7.0149 1.1728,8.13943 -0.4064,1.12321 -1.8442,7.19487 -1.8442,7.19487 0,0 1.6642,3.68857 2.5641,7.2404 0.8999,3.55197 3.2832,10.92694 3.552,18.0311 0.269,7.10557 0.2245,12.9972 0.451,13.17737 0.2244,0.17823 2.1577,2.1129 2.2486,3.01187 0.09,0.89897 -0.045,3.19333 0.09,4.63202 0.1346,1.43978 -0.09,2.15768 0,3.68868 0.089,1.52763 -0.044,2.15773 -0.7662,2.83093 -0.7191,0.67557 -4.2709,1.48435 -7.0151,3.41727 -2.741,1.93326 -6.3395,3.19526 -9.1726,3.05863 -2.8321,-0.13547 -8.23032,-1.21408 -8.13942,-2.47543 0.09,-1.25853 -0.2253,-2.20173 0.6756,-3.3262 0.8988,-1.12526 3.012,-1.39347 3.77642,-2.2042 0.7644,-0.80767 0.091,-0.7178 1.1687,-1.66517 1.0789,-0.94111 1.7543,-1.75253 2.4287,-2.56206 0.6745,-0.81014 1.1234,-0.67467 1.7533,-1.75327 0.6297,-1.0799 0.9898,-2.15773 0.9898,-2.15773 0,0 0.18,-0.9896 0.2235,-1.21443 0.048,-0.22627 0.5855,-1.57504 -0.359,-2.06891 -0.9434,-0.4941 -5.9797,-4.67703 -6.384,-9.39877 -0.40642,-4.72173 -3.01622,-14.88323 -3.64512,-18.03186 -0.6279,-3.14787 -1.9331,-5.39624 -1.9331,-5.39624 0,0 0.2699,4.9472 -0.4044,9.44272 -0.6745,4.49815 -1.4399,6.56612 -2.4742,9.39912 -1.0343,2.832 -0.9445,3.2818 0.045,5.03496 0.9888,1.75555 1.7987,5.08277 1.7077,8.14164 -0.088,3.05733 -0.088,3.91184 -0.36,4.00177 -0.2689,0.0899 -1.5278,1.12436 -6.833,0.8119 -5.3062,-0.31728 -7.2859,-0.13655 -9.8045,0.67233 -2.5166,0.80897 -9.8015,0.80897 -10.8369,-1.6671 0,0 0,-0.9858 0,-1.48023 0,-0.49772 0.1345,-2.33867 2.7886,-2.56401 2.6521,-0.22576 3.462,-1.07797 4.9463,-1.621 1.4843,-0.53803 2.8331,-1.12253 2.8331,-1.12253 0,0 0.044,-4.4974 1.3477,-6.83477 1.3053,-2.33966 2.5187,-2.07003 2.6087,-4.6782 0.091,-2.60791 -0.539,-4.99316 -0.8989,-7.86843 -0.3589,-2.87693 -1.1709,-10.2072 -1.4853,-14.48183 -0.3135,-4.27 -0.8989,-8.1363 -0.043,-12.00607 0.8524,-3.86613 -0.4974,-8.81157 0.8989,-13.48887 1.3922,-4.67935 2.3366,-12.4132 2.3366,-12.4132 0,0 -0.3609,-0.44994 -2.1587,-1.35081 -1.7987,-0.89682 -2.3376,-2.11218 -1.9332,-3.28092 0.4055,-1.16977 1.2599,-8.4993 1.4843,-12.77221 0.2265,-4.27175 1.6198,-7.24045 1.1254,-13.66886 -0.4955,-6.43063 1.3022,-14.70429 1.6167,-16.00774 0.3154,-1.30422 -2.9211,0.58441 -5.0807,0.76236 -2.1567,0.17897 -2.1567,0.17897 -2.1567,0.17897 0,0 0.043,-3.10089 -1.3063,-3.99985 0,0 -10.386,-1.75323 -10.928,-4.9007 0,0 -1.8857,-3.5541 -2.0211,-8.9958 -0.1365,-5.44069 0.045,-11.78023 0.3144,-15.24423 0.2689,-3.46194 -1.3488,-4.22634 -1.5752,-5.43964 l -0.2245,-2.65507"
       style="display:inline;fill:#99999f;fill-opacity:1;fill-rule:nonzero;stroke:#000000;stroke-width:0.75;stroke-miterlimit:4;stroke-dasharray:none;stroke-opacity:1"
       id="path1077" />
    <path
       d="m 998.37618,319.39935 c 0,0 -7.6267,0.28666 -10.952,7.72266 0,0 13.14262,6.50534 7.4493,10.50667 l -10.3973,6.96666 c 0,0 -0.704,-0.79066 -2.1734,0.136 -1.468,0.924 -13.9453,8.17734 -20.8427,10.268 0,0 -2.7079,0.268 -2.1453,2.79067 0.5627,2.52 2.452,5.84533 4.7147,4.216 2.2587,-1.632 4.7733,-3.83333 8.6013,-4.59867 3.828,-0.772 14.1294,-7.88666 13.144,-10.75466 l 11.168,-7.044 c 0,0 2.4827,-0.95067 4.05872,1.548 l 5.7867,-3.85467 c 0,0 -4.4427,-5.41466 -8.41202,-17.90266"
       style="display:inline;fill:#99999f;fill-opacity:1;fill-rule:nonzero;stroke:#000000;stroke-width:0.75;stroke-miterlimit:4;stroke-dasharray:none;stroke-opacity:1"
       id="path1079" />
    <path
       d="m 920.81968,397.88694 c 0,0 -0.5229,-0.93526 -0.8964,-1.64439 -0.3745,-0.70813 -0.3379,-1.15898 -0.5241,-1.71973 -0.1851,-0.55844 -0.3723,-2.01564 -0.6338,-2.61388 -0.2626,-0.59842 -0.5607,-0.6726 -0.9718,-0.63608 0,0 -0.635,-1.04386 -1.4205,-0.89417 -0.7835,0.14838 -0.522,0.74678 -0.3358,1.60558 0.1873,0.86093 0.5973,1.86809 0.7114,3.06262 0.1119,1.19566 0.2991,1.79407 0.7435,2.65269 0.452,0.85996 1.384,1.9436 1.5347,2.99074 0.1485,1.04482 0.4487,1.86711 0.7479,3.02396 0.297,1.15898 1.2677,3.06486 0.635,4.71131 -0.635,1.64337 -2.0576,6.57309 -2.8411,9.15161 -0.7856,2.57738 -3.0261,5.26775 -4.0732,8.48218 -1.046,3.20902 -1.6056,3.73422 -1.6056,3.73422 0,0 -0.8577,-0.14951 -1.7552,0.41318 -0.8975,0.55747 -0.9363,0.035 -1.7574,0.26056 -0.8221,0.22273 -1.0837,0.18604 -1.0837,0.18604 0,0 -0.6726,-1.34518 -1.1579,-1.34518 -0.4843,0 -1.2311,0.15066 -0.934,1.67992 0,0 -1.2689,0.71239 -2.0168,0.71239 -0.7501,0 -0.8986,0.18621 -1.3085,0.26154 -0.4112,0.0727 -1.271,-0.48754 -2.2805,-0.63608 -1.0062,-0.15064 -2.6527,-0.5229 -2.6527,-0.5229 0,0 -1.6421,-0.26267 -2.0166,-0.26267 -0.3724,0 -0.5586,-0.11298 0.8974,-0.59727 1.4572,-0.48427 1.7553,-1.38384 0.9331,-2.28031 -0.8222,-0.89434 -0.7824,-0.85764 -0.7469,-1.53236 0.038,-0.6726 0.7092,-0.96852 -0.6714,-1.75314 0,0 0.7844,-0.71026 0.3722,-1.23219 -0.4099,-0.5229 -1.0083,-1.23316 -0.5972,-1.71857 0.4111,-0.48967 1.7929,-1.60991 1.1579,-2.0942 -0.636,-0.4853 -3.0261,-2.20503 -3.5125,-2.57738 -0.4864,-0.37442 -0.6349,-0.63712 -0.4864,-1.16002 0.1528,-0.52095 0.1119,-0.78346 -0.2615,-1.60564 -0.3745,-0.82009 -2.2772,-4.14539 -5.3797,-5.00516 -3.1025,-0.85984 -7.6578,-1.30752 -11.8431,0.55746 -4.185,1.86809 -5.6788,7.58571 -4.7457,11.54709 0.933,3.96023 2.6527,4.81672 4.2594,6.80126 1.6067,1.97684 3.7353,4.03113 3.3253,4.63053 0,0 -0.4854,0.60053 -0.4854,1.158 0,0.56287 0.1507,0.78671 -0.1506,1.23218 -0.2982,0.44988 -0.3713,0.97278 -0.5607,1.6077 -0.1872,0.63718 -1.3796,1.68206 -2.3535,3.3253 -0.9697,1.64555 -3.2123,3.36412 -3.6966,5.45511 -0.4886,2.09196 -1.159,4.93194 -1.159,6.35139 0,1.41937 0.4853,6.35139 1.1202,7.99579 0.6339,1.64324 0.9352,3.24784 1.4206,4.63379 0.4854,1.38073 0.4854,1.38073 0.4854,1.38073 0,0 0.036,-0.14853 -0.113,0.41008 -0.1486,0.56172 -0.1852,1.0848 0.113,1.79603 0.2969,0.70928 0.8597,1.34421 1.0815,3.50924 0.226,2.16872 0.6747,2.5441 0.1528,3.47477 -0.5231,0.93545 -0.8976,0.74713 -0.1142,1.64569 0.7846,0.89548 1.3087,1.30866 1.3087,1.30866 0,0 -0.9729,0.85894 -1.046,2.09099 -0.075,1.23294 0.6359,2.24351 0.5219,2.61717 -0.112,0.37002 -0.6704,1.79076 -0.933,1.79076 -0.2605,0 -1.9425,-0.26066 -1.681,1.3827 0.2627,1.64441 1.1957,1.30767 0.8211,1.94464 -0.3734,0.6359 -1.457,1.34376 -1.1579,2.39103 0.2981,1.04425 0.6704,1.00845 0.3347,1.90376 -0.3347,0.89961 -1.2687,2.50545 -1.2687,2.50545 0,0 1.2321,0.74441 1.3817,0.8962 0.1496,0.14841 -0.1496,1.64236 0.113,1.64236 0.2594,0 0.4465,0 0.4465,0 0,0 -0.1473,1.12335 0.1142,2.3932 0.2614,1.26867 0.5584,2.05348 0.5584,2.05348 0,0 0.2992,2.28014 0.9352,3.36179 0.6339,1.08241 1.2688,2.50403 1.2688,2.50403 0,0 -1.0083,-0.37325 -1.4549,-0.6359 -0.4499,-0.2603 -0.8964,-1.04602 -2.8034,-1.79166 -1.9047,-0.74906 -3.8472,-1.4205 -4.1098,-1.34518 -0.2615,0.0725 -2.9873,1.15763 -3.5502,4.59514 -0.5585,3.4373 -0.932,6.87348 -0.7835,9.22793 0.1486,2.35569 -0.933,5.82962 0,7.95805 0.9341,2.13002 3.5869,5.64211 5.6788,5.94021 2.0931,0.30141 3.4373,-0.74567 4.3724,-1.08454 0.933,-0.33674 1.3452,-1.60336 0.7093,-3.36083 -0.635,-1.75638 -0.7846,-1.38183 -0.4854,-2.27932 0.3002,-0.8962 0.9351,-1.86938 0.9351,-1.86938 0,0 3.0262,5.23358 7.6956,7.88403 4.6705,2.65173 10.797,5.38074 15.3179,7.24764 4.5209,1.86937 7.4728,3.88715 10.3859,3.02623 2.9153,-0.85757 5.9037,-2.79873 6.9121,-3.73286 1.0072,-0.93537 0.8975,-2.24192 0.8577,-3.99816 -0.036,-1.75637 -1.3442,-4.3723 -1.3796,-4.48401 -0.039,-0.11225 4.7059,0.59938 7.2456,-1.86862 2.5419,-2.46502 3.3275,-3.62327 3.4405,-5.49353 0.1098,-1.86714 0.073,-3.66 -1.1988,-5.97799 -1.2688,-2.31585 -4.3348,-6.68596 -5.6767,-8.92865 -1.3441,-2.2405 -3.5125,-4.51982 -5.1946,-6.42488 -1.683,-1.90778 -2.615,-2.429 -3.5502,-3.32528 -0.933,-0.89855 -1.1579,-0.97176 -0.82,-1.3817 0.3347,-0.41312 0.933,-0.71128 0.9696,-2.28251 0.039,-1.56887 0.5241,-1.75416 -0.036,-2.83797 -0.5596,-1.08238 -0.7844,-0.93286 -0.5596,-2.42898 0.2239,-1.49648 0,-1.08454 -0.074,-2.4283 -0.078,-1.34519 -0.1873,-2.05572 -0.2992,-3.66244 -0.113,-1.6066 0.1486,-7.20931 -0.075,-10.05139 -0.2249,-2.8376 -0.7845,-8.66607 -1.159,-10.08656 0,0 0.8598,-3.21333 1.9058,-4.89326 1.0483,-1.68091 1.1225,-3.06589 1.9457,-3.69975 0.82,-0.63386 1.4549,-1.15792 1.9414,-2.80231 0.4842,-1.64219 0.4842,-3.65995 1.456,-4.85882 0.9707,-1.19337 2.7647,-3.13484 2.6162,-3.88489 -0.1507,-0.7458 -1.0472,-1.23104 -1.9791,-0.67047 -0.9341,0.56075 -1.7196,1.23121 -1.9447,1.86827 -0.2248,0.63599 -0.7102,1.34624 -1.1213,1.08037 -0.41,-0.26137 -0.9341,-0.89204 -1.0471,-1.30752 -0.1097,-0.40991 0.5263,-0.85765 0.5263,-0.85765 0,0 4.2583,-1.75512 5.9037,-2.76456 1.6423,-1.00832 3.2888,-2.80013 4.3336,-5.37977 1.045,-2.57737 3.3265,-7.77289 3.7365,-15.09511 0.4099,-7.32204 0.1108,-9.26342 0.6349,-10.20188 0.5241,-0.93087 0.9728,-2.23936 0.077,-4.36917 -0.8986,-2.13075 -1.4969,-3.39835 -2.318,-4.07094 0,0 -0.4498,-0.85993 -0.4498,-1.83271 0,-0.97064 -0.3713,-2.87445 -0.8201,-3.28763 -0.4476,-0.40893 -1.1977,-0.81998 -1.1192,-0.0363 0.072,0.78673 0.4477,3.66322 0.1475,3.55023"
       style="display:inline;fill:#99999f;fill-opacity:1;fill-rule:nonzero;stroke:#00000f;stroke-width:0.75;stroke-miterlimit:4;stroke-dasharray:none;stroke-opacity:1"
       id="path1081" />
    <g
       id="g1095"
       transform="translate(746.76809,118.06422)"
       style="display:inline">
      <g
         id="g1093">
        <g
           id="g1091"
           transform="translate(-185.2681,-68.561428)">
          <rect
             x="37"
             y="0"
             width="0"
             height="0"
             fill="none"
             stroke="#000000"
             pointer-events="all"
             id="rect1083" />
          <rect
             x="0"
             y="300"
             width="71.730003"
             height="190"
             fill="none"
             stroke="none"
             pointer-events="all"
             id="rect1085" />
          <ellipse
             cx="34.900002"
             cy="315.67999"
             rx="15.725868"
             ry="15.682784"
             fill="transparent"
             stroke="#000000"
             pointer-events="all"
             id="ellipse1087"
             style="fill:#008080" />
          <path
             d="m 16.32,481.31 c 0,4.79 3.95,8.69 8.81,8.69 4.88,0 8.83,-3.88 8.83,-8.69 v -72.82 h 3.93 l -0.02,72.82 c 0,4.79 3.95,8.69 8.81,8.69 4.85,0 8.8,-3.88 8.8,-8.69 l 0.04,-125.56 h 3.88 v 46.28 c 0,9.31 12.33,9.31 12.29,0 v -47.26 c 0,-10.28 -6.13,-20.35 -18.35,-20.35 L 18.1,334.38 C 6.96,334.38 0,343.32 0,354.49 v 47.54 c 0,9.25 12.39,9.25 12.39,0 v -46.28 h 3.95 z"
             fill="none"
             stroke="#000000"
             stroke-miterlimit="10"
             pointer-events="all"
             id="path1089"
             style="fill:#008080" />
        </g>
      </g>
    </g>
    <rect
       style="display:inline;fill:none;stroke:#333333;stroke-width:1;stroke-miterlimit:4;stroke-dasharray:none;stroke-opacity:1"
       id="rect1121"
       width="500"
       height="500"
       x="1100.5"
       y="50.5" />
    <path
       d="m 1508.0883,358.63939 c 0,0 -0.5401,-1.39327 1.6187,-2.55921 0,0 0.2688,-0.90189 1.7531,-1.08084 0,0 0.2266,-1.17087 2.0699,-0.81082 0,0 0.178,-0.8463 1.0778,-0.93927 0,0 0.01,-0.0423 0.033,-0.1002 0.071,-0.18294 0.266,-0.53389 0.642,-0.2609 0.4934,0.3611 1.2143,1.0799 2.1142,1.25994 0.8989,0.179 0.5845,1.16873 0.5845,1.16873 l 0.6289,1.16695 -0.6754,0.36288 c 0,0 0.63,1.34773 0,2.2901 -0.63,0.94753 -1.4379,3.06173 -1.7088,3.9585 -0.2689,0.89884 -0.2689,1.6653 -0.2689,2.83507 0,1.16776 0.63,9.08263 1.4822,12.14023 0.8564,3.0576 2.8786,5.48817 2.6543,7.10184 0,0 0,-0.22336 1.2576,-0.26887 1.2609,-0.0421 1.171,-0.40443 2.0699,-0.26888 0.8988,0.13649 1.0788,0.36184 1.9766,0.13649 0.902,-0.22665 1.0809,-0.49551 2.2507,-0.27204 1.1688,0.22439 1.1688,0.22439 1.1688,0.22439 0,0 0.18,-0.44786 1.0788,-0.44786 0.9009,0 1.6177,-0.40537 2.6087,-0.80897 0.9887,-0.40433 1.4843,-0.35978 1.9352,-0.35978 0.4489,0 1.9321,-0.54009 3.0566,-0.62892 1.1252,-0.09 1.7977,-0.18106 2.0686,-0.40556 0.2709,-0.22544 0.5833,-0.27001 0.5833,-0.27001 0,0 0.045,-2.2476 -1.5721,-1.9787 -1.6189,0.27101 -3.9584,1.07884 -5.4862,-0.0897 -1.5288,-1.1688 0,-2.11316 -0.6299,-3.50856 -0.63,-1.3923 -1.1698,-1.30317 -0.6745,-1.9777 0,0 -0.4509,-0.22342 -0.3598,-0.9009 0.088,-0.6733 -0.046,-1.79767 -0.5411,-1.88759 -0.4943,-0.0899 -1.3922,-0.0899 -1.7066,-0.80788 -0.3165,-0.7219 0.7199,-1.5288 0.7199,-1.5288 0,0 -2.5187,0.0426 -3.733,-1.30627 -1.2143,-1.34787 -2.5641,-3.10113 -1.4398,-3.63902 1.1234,-0.54201 5.7551,-2.78961 5.7551,-2.78961 0,0 1.7088,-4.22633 5.7106,-6.42863 4.002,-2.20304 8.0504,-3.37487 11.6913,-0.5854 3.643,2.7877 4.7229,5.43973 4.7229,5.89062 0,0.449 0.1334,0.62994 0.2678,1.35081 0.1365,0.71807 -0.1344,1.25477 0.3155,1.3923 0.45,0.13447 0.3621,0.13447 0.091,0.81103 -0.27,0.67328 -0.3144,1.61764 -0.5834,1.57411 0,0 -0.2264,1.79693 -0.8564,3.73006 -0.6289,1.9321 -0.9424,3.01303 -0.089,6.834 0,0 1.2143,-0.358 1.3488,-0.0894 0.1344,0.27011 0.9009,1.43884 1.3042,1.57431 0.4044,0.13444 1.8907,0.4945 2.9242,1.12343 1.0333,0.62789 4.0463,3.3275 5.6206,5.35157 1.5732,2.0243 3.6439,5.4852 3.283,7.55589 -0.361,2.06784 -1.0333,2.3792 -1.1688,4.17791 -0.1346,1.8018 0.088,5.89163 -0.4499,10.5679 -0.541,4.67936 -0.72,11.37996 -0.45,17.35943 0.27,5.98073 0.3154,11.24136 0.8999,15.10982 0.5855,3.86541 0.8544,5.53175 0.4034,6.02418 -0.4489,0.49632 -0.2679,1.57415 -0.2679,1.57415 0,0 0.4044,0.045 0.1799,0.98895 -0.2254,0.94632 -0.5409,5.21714 -1.1698,8.00583 -0.6289,2.78754 -1.3043,6.56503 -1.3498,7.23937 -0.042,0.67453 0,1.43984 -0.2689,2.02433 -0.271,0.58437 0.1324,1.25766 0.1324,2.02303 0,0.76438 1.5773,7.0149 1.1728,8.13943 -0.4064,1.12321 -1.8442,7.19487 -1.8442,7.19487 0,0 1.6642,3.68857 2.5641,7.2404 0.8999,3.55197 3.2832,10.92694 3.552,18.0311 0.269,7.10557 0.2245,12.9972 0.451,13.17737 0.2244,0.17823 2.1577,2.1129 2.2486,3.01187 0.09,0.89897 -0.045,3.19333 0.09,4.63202 0.1346,1.43978 -0.09,2.15768 0,3.68868 0.089,1.52763 -0.044,2.15773 -0.7662,2.83093 -0.7191,0.67557 -4.2709,1.48435 -7.0151,3.41727 -2.741,1.93326 -6.3395,3.19526 -9.1726,3.05863 -2.8321,-0.13547 -8.2303,-1.21408 -8.1394,-2.47543 0.09,-1.25853 -0.2253,-2.20173 0.6756,-3.3262 0.8988,-1.12526 3.012,-1.39347 3.7764,-2.2042 0.7644,-0.80767 0.091,-0.7178 1.1687,-1.66517 1.0789,-0.94111 1.7543,-1.75253 2.4287,-2.56206 0.6745,-0.81014 1.1234,-0.67467 1.7533,-1.75327 0.6297,-1.0799 0.9898,-2.15773 0.9898,-2.15773 0,0 0.18,-0.9896 0.2235,-1.21443 0.048,-0.22627 0.5855,-1.57504 -0.359,-2.06891 -0.9434,-0.4941 -5.9797,-4.67703 -6.384,-9.39877 -0.4064,-4.72173 -3.0162,-14.88323 -3.6451,-18.03186 -0.6279,-3.14787 -1.9331,-5.39624 -1.9331,-5.39624 0,0 0.2699,4.9472 -0.4044,9.44272 -0.6745,4.49815 -1.4399,6.56612 -2.4742,9.39912 -1.0343,2.832 -0.9445,3.2818 0.045,5.03496 0.9888,1.75555 1.7987,5.08277 1.7077,8.14164 -0.088,3.05733 -0.088,3.91184 -0.36,4.00177 -0.2689,0.0899 -1.5278,1.12436 -6.833,0.8119 -5.3062,-0.31728 -7.2859,-0.13655 -9.8045,0.67233 -2.5166,0.80897 -9.8015,0.80897 -10.8369,-1.6671 0,0 0,-0.9858 0,-1.48023 0,-0.49772 0.1345,-2.33867 2.7886,-2.56401 2.6521,-0.22576 3.462,-1.07797 4.9463,-1.621 1.4843,-0.53803 2.8331,-1.12253 2.8331,-1.12253 0,0 0.044,-4.4974 1.3477,-6.83477 1.3053,-2.33966 2.5187,-2.07003 2.6087,-4.6782 0.091,-2.60791 -0.539,-4.99316 -0.8989,-7.86843 -0.3589,-2.87693 -1.1709,-10.2072 -1.4853,-14.48183 -0.3135,-4.27 -0.8989,-8.1363 -0.043,-12.00607 0.8524,-3.86613 -0.4974,-8.81157 0.8989,-13.48887 1.3922,-4.67935 2.3366,-12.4132 2.3366,-12.4132 0,0 -0.3609,-0.44994 -2.1587,-1.35081 -1.7987,-0.89682 -2.3376,-2.11218 -1.9332,-3.28092 0.4055,-1.16977 1.2599,-8.4993 1.4843,-12.77221 0.2265,-4.27175 1.6198,-7.24045 1.1254,-13.66886 -0.4955,-6.43063 1.3022,-14.70429 1.6167,-16.00774 0.3154,-1.30422 -2.9211,0.58441 -5.0807,0.76236 -2.1567,0.17897 -2.1567,0.17897 -2.1567,0.17897 0,0 0.043,-3.10089 -1.3063,-3.99985 0,0 -10.386,-1.75323 -10.928,-4.9007 0,0 -1.8857,-3.5541 -2.0211,-8.9958 -0.1365,-5.44069 0.045,-11.78023 0.3144,-15.24423 0.2689,-3.46194 -1.3488,-4.22634 -1.5752,-5.43964 l -0.2245,-2.65507"
       style="display:inline;fill:#99999f;fill-opacity:1;fill-rule:nonzero;stroke:#000000;stroke-width:0.75;stroke-miterlimit:4;stroke-dasharray:none;stroke-opacity:1"
       id="path1123" />
    <path
       d="m 1548.3762,319.39935 c 0,0 -7.6267,0.28666 -10.952,7.72266 0,0 13.1426,6.50534 7.4493,10.50667 l -10.3973,6.96666 c 0,0 -0.704,-0.79066 -2.1734,0.136 -1.468,0.924 -13.9453,8.17734 -20.8427,10.268 0,0 -2.7079,0.268 -2.1453,2.79067 0.5627,2.52 2.452,5.84533 4.7147,4.216 2.2587,-1.632 4.7733,-3.83333 8.6013,-4.59867 3.828,-0.772 14.1294,-7.88666 13.144,-10.75466 l 11.168,-7.044 c 0,0 2.4827,-0.95067 4.0587,1.548 l 5.7867,-3.85467 c 0,0 -4.4427,-5.41466 -8.412,-17.90266"
       style="display:inline;fill:#99999f;fill-opacity:1;fill-rule:nonzero;stroke:#000000;stroke-width:0.75;stroke-miterlimit:4;stroke-dasharray:none;stroke-opacity:1"
       id="path1125" />
    <path
       d="m 1470.8197,397.88694 c 0,0 -0.5229,-0.93526 -0.8964,-1.64439 -0.3745,-0.70813 -0.3379,-1.15898 -0.5241,-1.71973 -0.1851,-0.55844 -0.3723,-2.01564 -0.6338,-2.61388 -0.2626,-0.59842 -0.5607,-0.6726 -0.9718,-0.63608 0,0 -0.635,-1.04386 -1.4205,-0.89417 -0.7835,0.14838 -0.522,0.74678 -0.3358,1.60558 0.1873,0.86093 0.5973,1.86809 0.7114,3.06262 0.1119,1.19566 0.2991,1.79407 0.7435,2.65269 0.452,0.85996 1.384,1.9436 1.5347,2.99074 0.1485,1.04482 0.4487,1.86711 0.7479,3.02396 0.297,1.15898 1.2677,3.06486 0.635,4.71131 -0.635,1.64337 -2.0576,6.57309 -2.8411,9.15161 -0.7856,2.57738 -3.0261,5.26775 -4.0732,8.48218 -1.046,3.20902 -1.6056,3.73422 -1.6056,3.73422 0,0 -0.8577,-0.14951 -1.7552,0.41318 -0.8975,0.55747 -0.9363,0.035 -1.7574,0.26056 -0.8221,0.22273 -1.0837,0.18604 -1.0837,0.18604 0,0 -0.6726,-1.34518 -1.1579,-1.34518 -0.4843,0 -1.2311,0.15066 -0.934,1.67992 0,0 -1.2689,0.71239 -2.0168,0.71239 -0.7501,0 -0.8986,0.18621 -1.3085,0.26154 -0.4112,0.0727 -1.271,-0.48754 -2.2805,-0.63608 -1.0062,-0.15064 -2.6527,-0.5229 -2.6527,-0.5229 0,0 -1.6421,-0.26267 -2.0166,-0.26267 -0.3724,0 -0.5586,-0.11298 0.8974,-0.59727 1.4572,-0.48427 1.7553,-1.38384 0.9331,-2.28031 -0.8222,-0.89434 -0.7824,-0.85764 -0.7469,-1.53236 0.038,-0.6726 0.7092,-0.96852 -0.6714,-1.75314 0,0 0.7844,-0.71026 0.3722,-1.23219 -0.4099,-0.5229 -1.0083,-1.23316 -0.5972,-1.71857 0.4111,-0.48967 1.7929,-1.60991 1.1579,-2.0942 -0.636,-0.4853 -3.0261,-2.20503 -3.5125,-2.57738 -0.4864,-0.37442 -0.6349,-0.63712 -0.4864,-1.16002 0.1528,-0.52095 0.1119,-0.78346 -0.2615,-1.60564 -0.3745,-0.82009 -2.2772,-4.14539 -5.3797,-5.00516 -3.1025,-0.85984 -7.6578,-1.30752 -11.8431,0.55746 -4.185,1.86809 -5.6788,7.58571 -4.7457,11.54709 0.933,3.96023 2.6527,4.81672 4.2594,6.80126 1.6067,1.97684 3.7353,4.03113 3.3253,4.63053 0,0 -0.4854,0.60053 -0.4854,1.158 0,0.56287 0.1507,0.78671 -0.1506,1.23218 -0.2982,0.44988 -0.3713,0.97278 -0.5607,1.6077 -0.1872,0.63718 -1.3796,1.68206 -2.3535,3.3253 -0.9697,1.64555 -3.2123,3.36412 -3.6966,5.45511 -0.4886,2.09196 -1.159,4.93194 -1.159,6.35139 0,1.41937 0.4853,6.35139 1.1202,7.99579 0.6339,1.64324 0.9352,3.24784 1.4206,4.63379 0.4854,1.38073 0.4854,1.38073 0.4854,1.38073 0,0 0.036,-0.14853 -0.113,0.41008 -0.1486,0.56172 -0.1852,1.0848 0.113,1.79603 0.2969,0.70928 0.8597,1.34421 1.0815,3.50924 0.226,2.16872 0.6747,2.5441 0.1528,3.47477 -0.5231,0.93545 -0.8976,0.74713 -0.1142,1.64569 0.7846,0.89548 1.3087,1.30866 1.3087,1.30866 0,0 -0.9729,0.85894 -1.046,2.09099 -0.075,1.23294 0.6359,2.24351 0.5219,2.61717 -0.112,0.37002 -0.6704,1.79076 -0.933,1.79076 -0.2605,0 -1.9425,-0.26066 -1.681,1.3827 0.2627,1.64441 1.1957,1.30767 0.8211,1.94464 -0.3734,0.6359 -1.457,1.34376 -1.1579,2.39103 0.2981,1.04425 0.6704,1.00845 0.3347,1.90376 -0.3347,0.89961 -1.2687,2.50545 -1.2687,2.50545 0,0 1.2321,0.74441 1.3817,0.8962 0.1496,0.14841 -0.1496,1.64236 0.113,1.64236 0.2594,0 0.4465,0 0.4465,0 0,0 -0.1473,1.12335 0.1142,2.3932 0.2614,1.26867 0.5584,2.05348 0.5584,2.05348 0,0 0.2992,2.28014 0.9352,3.36179 0.6339,1.08241 1.2688,2.50403 1.2688,2.50403 0,0 -1.0083,-0.37325 -1.4549,-0.6359 -0.4499,-0.2603 -0.8964,-1.04602 -2.8034,-1.79166 -1.9047,-0.74906 -3.8472,-1.4205 -4.1098,-1.34518 -0.2615,0.0725 -2.9873,1.15763 -3.5502,4.59514 -0.5585,3.4373 -0.932,6.87348 -0.7835,9.22793 0.1486,2.35569 -0.933,5.82962 0,7.95805 0.9341,2.13002 3.5869,5.64211 5.6788,5.94021 2.0931,0.30141 3.4373,-0.74567 4.3724,-1.08454 0.933,-0.33674 1.3452,-1.60336 0.7093,-3.36083 -0.635,-1.75638 -0.7846,-1.38183 -0.4854,-2.27932 0.3002,-0.8962 0.9351,-1.86938 0.9351,-1.86938 0,0 3.0262,5.23358 7.6956,7.88403 4.6705,2.65173 10.797,5.38074 15.3179,7.24764 4.5209,1.86937 7.4728,3.88715 10.3859,3.02623 2.9153,-0.85757 5.9037,-2.79873 6.9121,-3.73286 1.0072,-0.93537 0.8975,-2.24192 0.8577,-3.99816 -0.036,-1.75637 -1.3442,-4.3723 -1.3796,-4.48401 -0.039,-0.11225 4.7059,0.59938 7.2456,-1.86862 2.5419,-2.46502 3.3275,-3.62327 3.4405,-5.49353 0.1098,-1.86714 0.073,-3.66 -1.1988,-5.97799 -1.2688,-2.31585 -4.3348,-6.68596 -5.6767,-8.92865 -1.3441,-2.2405 -3.5125,-4.51982 -5.1946,-6.42488 -1.683,-1.90778 -2.615,-2.429 -3.5502,-3.32528 -0.933,-0.89855 -1.1579,-0.97176 -0.82,-1.3817 0.3347,-0.41312 0.933,-0.71128 0.9696,-2.28251 0.039,-1.56887 0.5241,-1.75416 -0.036,-2.83797 -0.5596,-1.08238 -0.7844,-0.93286 -0.5596,-2.42898 0.2239,-1.49648 0,-1.08454 -0.074,-2.4283 -0.078,-1.34519 -0.1873,-2.05572 -0.2992,-3.66244 -0.113,-1.6066 0.1486,-7.20931 -0.075,-10.05139 -0.2249,-2.8376 -0.7845,-8.66607 -1.159,-10.08656 0,0 0.8598,-3.21333 1.9058,-4.89326 1.0483,-1.68091 1.1225,-3.06589 1.9457,-3.69975 0.82,-0.63386 1.4549,-1.15792 1.9414,-2.80231 0.4842,-1.64219 0.4842,-3.65995 1.456,-4.85882 0.9707,-1.19337 2.7647,-3.13484 2.6162,-3.88489 -0.1507,-0.7458 -1.0472,-1.23104 -1.9791,-0.67047 -0.9341,0.56075 -1.7196,1.23121 -1.9447,1.86827 -0.2248,0.63599 -0.7102,1.34624 -1.1213,1.08037 -0.41,-0.26137 -0.9341,-0.89204 -1.0471,-1.30752 -0.1097,-0.40991 0.5263,-0.85765 0.5263,-0.85765 0,0 4.2583,-1.75512 5.9037,-2.76456 1.6423,-1.00832 3.2888,-2.80013 4.3336,-5.37977 1.045,-2.57737 3.3265,-7.77289 3.7365,-15.09511 0.4099,-7.32204 0.1108,-9.26342 0.6349,-10.20188 0.5241,-0.93087 0.9728,-2.23936 0.077,-4.36917 -0.8986,-2.13075 -1.4969,-3.39835 -2.318,-4.07094 0,0 -0.4498,-0.85993 -0.4498,-1.83271 0,-0.97064 -0.3713,-2.87445 -0.8201,-3.28763 -0.4476,-0.40893 -1.1977,-0.81998 -1.1192,-0.0363 0.072,0.78673 0.4477,3.66322 0.1475,3.55023"
       style="display:inline;fill:#99999f;fill-opacity:1;fill-rule:nonzero;stroke:#00000f;stroke-width:0.75;stroke-miterlimit:4;stroke-dasharray:none;stroke-opacity:1"
       id="path1127" />
    <g
       id="g1141"
       transform="translate(1296.7681,118.06422)"
       style="display:inline">
      <g
         id="g1139">
        <g
           id="g1137"
           transform="translate(-185.2681,-68.561428)">
          <rect
             x="37"
             y="0"
             width="0"
             height="0"
             fill="none"
             stroke="#000000"
             pointer-events="all"
             id="rect1129" />
          <rect
             x="0"
             y="300"
             width="71.730003"
             height="190"
             fill="none"
             stroke="none"
             pointer-events="all"
             id="rect1131" />
          <ellipse
             cx="34.900002"
             cy="315.67999"
             rx="15.725868"
             ry="15.682784"
             fill="transparent"
             stroke="#000000"
             pointer-events="all"
             id="ellipse1133"
             style="fill:#008080" />
          <path
             d="m 16.32,481.31 c 0,4.79 3.95,8.69 8.81,8.69 4.88,0 8.83,-3.88 8.83,-8.69 v -72.82 h 3.93 l -0.02,72.82 c 0,4.79 3.95,8.69 8.81,8.69 4.85,0 8.8,-3.88 8.8,-8.69 l 0.04,-125.56 h 3.88 v 46.28 c 0,9.31 12.33,9.31 12.29,0 v -47.26 c 0,-10.28 -6.13,-20.35 -18.35,-20.35 L 18.1,334.38 C 6.96,334.38 0,343.32 0,354.49 v 47.54 c 0,9.25 12.39,9.25 12.39,0 v -46.28 h 3.95 z"
             fill="none"
             stroke="#000000"
             stroke-miterlimit="10"
             pointer-events="all"
             id="path1135"
             style="fill:#008080" />
        </g>
      </g>
    </g>
    <g
       id="g1149"
       transform="matrix(1.2671326,0,0,1.2671326,1055.0917,21.925866)">
      <path
         d="m 229.46816,78.250809 c 0,0 -0.27005,-0.696635 0.80933,-1.279605 0,0 0.13443,-0.450945 0.87659,-0.54042 0,0 0.11329,-0.585435 1.03493,-0.40541 0,0 0.089,-0.42315 0.53891,-0.469635 0,0 0.005,-0.02115 0.0164,-0.0501 0.0356,-0.09147 0.13297,-0.266945 0.32099,-0.13045 0.24671,0.18055 0.60715,0.53995 1.05709,0.62997 0.44947,0.0895 0.29227,0.584365 0.29227,0.584365 l 0.31441,0.583475 -0.33768,0.18144 c 0,0 0.31499,0.673865 0,1.14505 -0.31498,0.473765 -0.71894,1.530865 -0.85441,1.97925 -0.13444,0.44942 -0.13444,0.83265 -0.13444,1.417535 0,0.58388 0.31499,4.541315 0.74109,6.070115 0.42823,1.5288 1.4393,2.744085 1.32715,3.55092 0,0 0,-0.11168 0.62883,-0.134435 0.63043,-0.02105 0.58549,-0.202215 1.03492,-0.13444 0.44941,0.06825 0.53942,0.18092 0.98833,0.06825 0.45097,-0.113325 0.54041,-0.247755 1.12535,-0.13602 0.58437,0.112195 0.58437,0.112195 0.58437,0.112195 0,0 0.09,-0.22393 0.53943,-0.22393 0.45045,0 0.80882,-0.202685 1.30435,-0.404485 0.49435,-0.202165 0.74212,-0.17989 0.9676,-0.17989 0.22445,0 0.96605,-0.270045 1.52828,-0.31446 0.5626,-0.045 0.89884,-0.09053 1.0343,-0.20278 0.13547,-0.11272 0.29167,-0.135005 0.29167,-0.135005 0,0 0.0225,-1.1238 -0.78608,-0.98935 -0.80942,0.135505 -1.97919,0.53942 -2.74307,-0.04485 -0.7644,-0.5844 0,-1.05658 -0.31498,-1.75428 -0.31499,-0.69615 -0.58489,-0.651585 -0.33725,-0.98885 0,0 -0.22545,-0.11171 -0.1799,-0.45045 0.0442,-0.33665 -0.0232,-0.898835 -0.27052,-0.943795 -0.24715,-0.04495 -0.6961,-0.04495 -0.85331,-0.40394 -0.15824,-0.36095 0.35994,-0.7644 0.35994,-0.7644 0,0 -1.25935,0.0213 -1.8665,-0.653135 -0.60715,-0.673935 -1.28206,-1.550565 -0.71991,-1.81951 0.56171,-0.271005 2.87756,-1.394805 2.87756,-1.394805 0,0 0.85442,-2.113165 2.85531,-3.214315 2.00099,-1.10152 4.02518,-1.687435 5.84564,-0.2927 1.8215,1.39385 2.36145,2.719865 2.36145,2.94531 0,0.2245 0.0667,0.31497 0.13392,0.675405 0.0682,0.359035 -0.0672,0.627385 0.15775,0.69615 0.22497,0.06723 0.18104,0.06723 0.0454,0.405515 -0.13501,0.33664 -0.1572,0.80882 -0.29173,0.787055 0,0 -0.1132,0.898465 -0.42819,1.86503 -0.31446,0.96605 -0.47118,1.506515 -0.0445,3.417 0,0 0.60715,-0.179 0.6744,-0.0447 0.0672,0.135055 0.45045,0.71942 0.6521,0.787155 0.20221,0.06722 0.94537,0.24725 1.4621,0.561715 0.51664,0.313945 2.02315,1.66375 2.81033,2.675785 0.78658,1.01215 1.82193,2.7426 1.64149,3.777945 -0.18052,1.03392 -0.51664,1.1896 -0.5844,2.088955 -0.0673,0.9009 0.0442,2.945815 -0.22497,5.283951 -0.27051,2.33968 -0.35999,5.68998 -0.22498,8.67971 0.135,2.99037 0.15769,5.62068 0.44995,7.55491 0.29273,1.93271 0.42717,2.76588 0.20168,3.01209 -0.22445,0.24816 -0.13392,0.78708 -0.13392,0.78708 0,0 0.20217,0.0225 0.0899,0.49447 -0.11271,0.47316 -0.27046,2.60857 -0.58491,4.00292 -0.31446,1.39377 -0.65212,3.28251 -0.67491,3.61968 -0.0212,0.33727 0,0.71992 -0.13444,1.01217 -0.13547,0.29218 0.0662,0.62883 0.0662,1.01151 0,0.38219 0.78869,3.50745 0.58643,4.06972 -0.20321,0.5616 -0.92212,3.59743 -0.92212,3.59743 0,0 0.83214,1.84429 1.28207,3.6202 0.44993,1.77599 1.64158,5.46347 1.77601,9.01555 0.13446,3.55279 0.11224,6.4986 0.22548,6.58869 0.1122,0.0891 1.07887,1.05645 1.12432,1.50593 0.0451,0.44949 -0.0225,1.59667 0.0451,2.31601 0.0673,0.71989 -0.0451,1.07884 0,1.84434 0.0446,0.76382 -0.0218,1.07887 -0.38313,1.41547 -0.35953,0.33778 -2.13544,0.74217 -3.50752,1.70863 -1.37054,0.96663 -3.16975,1.59763 -4.58632,1.52932 -1.41607,-0.0677 -4.11515,-0.60704 -4.0697,-1.23772 0.0452,-0.62926 -0.11267,-1.10086 0.33778,-1.6631 0.44942,-0.56263 1.506,-0.69673 1.8882,-1.1021 0.3822,-0.40383 0.0453,-0.3589 0.58437,-0.83258 0.53943,-0.47056 0.87717,-0.87627 1.21433,-1.28103 0.33727,-0.40507 0.56172,-0.33734 0.87666,-0.87664 0.31489,-0.53995 0.49491,-1.07886 0.49491,-1.07886 0,0 0.09,-0.4948 0.11176,-0.60722 0.0239,-0.11313 0.29272,-0.78752 -0.17949,-1.03445 -0.4717,-0.24705 -2.98986,-2.33852 -3.19204,-4.69939 -0.2032,-2.36086 -1.50806,-7.44161 -1.82253,-9.01593 -0.31395,-1.57393 -0.96657,-2.69812 -0.96657,-2.69812 0,0 0.13495,2.4736 -0.20217,4.72136 -0.33726,2.24908 -0.71998,3.28306 -1.23713,4.69956 -0.51715,1.416 -0.47221,1.6409 0.0225,2.51748 0.49442,0.87778 0.89935,2.54139 0.85388,4.07082 -0.0442,1.52867 -0.0442,1.95592 -0.18,2.00089 -0.13445,0.045 -0.76389,0.56218 -3.41649,0.40595 -2.65311,-0.15864 -3.64296,-0.0683 -4.90227,0.33616 -1.25831,0.40449 -4.90076,0.40449 -5.41845,-0.83355 0,0 0,-0.4929 0,-0.74011 0,-0.24886 0.0673,-1.16934 1.39429,-1.28201 1.32607,-0.11288 1.73099,-0.53898 2.47314,-0.8105 0.74215,-0.26901 1.41656,-0.56126 1.41656,-0.56126 0,0 0.0219,-2.2487 0.67389,-3.41739 0.65264,-1.16983 1.2593,-1.03501 1.30431,-2.3391 0.0454,-1.30395 -0.26948,-2.49658 -0.44944,-3.93421 -0.17946,-1.43847 -0.58544,-5.1036 -0.74265,-7.24092 -0.15672,-2.135 -0.44944,-4.06815 -0.0213,-6.00303 0.42618,-1.93307 -0.24872,-4.40579 0.44944,-6.74444 0.69613,-2.33967 1.16832,-6.2066 1.16832,-6.2066 0,0 -0.18047,-0.22497 -1.07935,-0.6754 -0.89937,-0.44841 -1.16881,-1.05609 -0.9666,-1.64046 0.20272,-0.58489 0.62992,-4.24965 0.74213,-6.38611 0.11326,-2.13587 0.8099,-3.62022 0.56269,-6.83443 -0.24772,-3.21531 0.65113,-7.352141 0.80836,-8.003866 0.15773,-0.65211 -1.46052,0.292205 -2.54036,0.38118 -1.07834,0.08948 -1.07834,0.08948 -1.07834,0.08948 0,0 0.0214,-1.550445 -0.65316,-1.999925 0,0 -5.19298,-0.876615 -5.46395,-2.45035 0,0 -0.94285,-1.77705 -1.01059,-4.4979 -0.0683,-2.720345 0.0225,-5.890115 0.15723,-7.622115 0.13445,-1.73097 -0.6744,-2.11317 -0.78764,-2.71982 l -0.11223,-1.327535"
         style="display:inline;fill:#99999f;fill-opacity:1;fill-rule:nonzero;stroke:#000000;stroke-width:0.375;stroke-miterlimit:4;stroke-dasharray:none;stroke-opacity:1"
         id="path1143" />
      <path
         d="m 249.61208,58.63079 c 0,0 -3.81333,0.14333 -5.476,3.86133 0,0 6.57133,3.25267 3.72467,5.253334 l -5.19867,3.48333 c 0,0 -0.352,-0.39533 -1.08667,0.068 -0.734,0.462 -6.97266,4.08867 -10.42133,5.134 0,0 -1.354,0.134 -1.07267,1.395335 0.28134,1.26 1.226,2.922665 2.35734,2.108 1.12933,-0.816 2.38666,-1.916665 4.30066,-2.299335 1.914,-0.386 7.06467,-3.94333 6.572,-5.37733 l 5.584,-3.522 c 0,0 1.24134,-0.475335 2.02934,0.774 l 2.89333,-1.927335 c 0,0 -2.22133,-2.707329 -4.206,-8.951329"
         style="display:inline;fill:#99999f;fill-opacity:1;fill-rule:nonzero;stroke:#000000;stroke-width:0.375;stroke-miterlimit:4;stroke-dasharray:none;stroke-opacity:1"
         id="path1145" />
      <path
         d="m 210.83385,97.874584 c 0,0 -0.26147,-0.46763 -0.44819,-0.822195 -0.18725,-0.354065 -0.16899,-0.57949 -0.26206,-0.859865 -0.0926,-0.27922 -0.18615,-1.00782 -0.31692,-1.30694 -0.13127,-0.29921 -0.28035,-0.3363 -0.4859,-0.31804 0,0 -0.31746,-0.52193 -0.71026,-0.447085 -0.3917,0.07419 -0.26096,0.37339 -0.16786,0.80279 0.0936,0.430465 0.29863,0.934045 0.35568,1.53131 0.0559,0.59783 0.14956,0.897035 0.37177,1.326345 0.226,0.42998 0.69201,0.9718 0.76734,1.49537 0.0743,0.52241 0.22436,0.933556 0.37396,1.511976 0.14848,0.57949 0.63385,1.53243 0.31747,2.35566 -0.31747,0.82168 -1.0288,3.28654 -1.42052,4.5758 -0.3928,1.28869 -1.51306,2.63387 -2.03662,4.24109 -0.52299,1.60451 -0.80279,1.86711 -0.80279,1.86711 0,0 -0.42888,-0.0748 -0.87763,0.20659 -0.44872,0.27873 -0.46813,0.0175 -0.87869,0.13028 -0.41106,0.11136 -0.54183,0.093 -0.54183,0.093 0,0 -0.33629,-0.67259 -0.57895,-0.67259 -0.24214,0 -0.61557,0.0753 -0.46703,0.83996 0,0 -0.63444,0.35619 -1.00839,0.35619 -0.37504,0 -0.44929,0.0931 -0.65426,0.13077 -0.20556,0.0363 -0.6355,-0.24377 -1.14021,-0.31804 -0.50311,-0.0753 -1.32635,-0.26145 -1.32635,-0.26145 0,0 -0.82107,-0.13133 -1.00834,-0.13133 -0.18619,0 -0.27926,-0.0565 0.44874,-0.29864 0.72859,-0.24213 0.87761,-0.69192 0.46653,-1.14015 -0.41111,-0.44717 -0.39121,-0.42882 -0.37345,-0.76618 0.0189,-0.3363 0.35462,-0.48426 -0.33572,-0.87657 0,0 0.39222,-0.35513 0.18614,-0.6161 -0.20497,-0.26145 -0.50418,-0.61658 -0.29863,-0.85928 0.20557,-0.24484 0.89645,-0.80496 0.57898,-1.0471 -0.31801,-0.24265 -1.51304,-1.10251 -1.75626,-1.28869 -0.24323,-0.18721 -0.31746,-0.31856 -0.24323,-0.58001 0.0764,-0.26047 0.056,-0.39173 -0.13073,-0.80282 -0.18725,-0.41004 -1.13858,-2.07269 -2.68987,-2.50258 -1.55124,-0.42992 -3.82889,-0.65376 -5.9215,0.27873 -2.09254,0.93405 -2.8394,3.79286 -2.3729,5.77354 0.46654,1.98012 1.32635,2.40836 2.1297,3.40063 0.80337,0.98842 1.86769,2.01557 1.66265,2.31527 0,0 -0.24266,0.30026 -0.24266,0.579 0,0.28143 0.0753,0.39335 -0.0753,0.61609 -0.14907,0.22494 -0.18564,0.48639 -0.28033,0.80385 -0.0936,0.31859 -0.6898,0.84103 -1.17675,1.66265 -0.48484,0.82277 -1.60615,1.68206 -1.84828,2.72755 -0.24433,1.04598 -0.57953,2.46597 -0.57953,3.1757 0,0.70968 0.24266,3.17569 0.56012,3.99789 0.31695,0.82162 0.4676,1.62392 0.71026,2.3169 0.24271,0.69036 0.24271,0.69036 0.24271,0.69036 0,0 0.0182,-0.0743 -0.0565,0.20504 -0.0743,0.28086 -0.0926,0.5424 0.0565,0.89802 0.14846,0.35464 0.42988,0.6721 0.54076,1.75462 0.113,1.08436 0.33736,1.27205 0.0764,1.73738 -0.26154,0.46773 -0.44876,0.37357 -0.0571,0.82285 0.3923,0.44774 0.65432,0.65433 0.65432,0.65433 0,0 -0.48642,0.42947 -0.52299,1.04549 -0.0376,0.61647 0.31795,1.12176 0.26097,1.30859 -0.056,0.18501 -0.33524,0.89538 -0.46654,0.89538 -0.13024,0 -0.97122,-0.13033 -0.84049,0.69135 0.13133,0.8222 0.59783,0.65383 0.41056,0.97232 -0.18669,0.31795 -0.72852,0.67188 -0.57895,1.19551 0.14906,0.52213 0.3352,0.50423 0.16732,0.95188 -0.16732,0.44981 -0.63435,1.25273 -0.63435,1.25273 0,0 0.61609,0.3722 0.69085,0.4481 0.0748,0.0742 -0.0748,0.82118 0.0565,0.82118 0.12971,0 0.2233,0 0.2233,0 0,0 -0.0737,0.56167 0.0571,1.1966 0.13073,0.63433 0.27922,1.02674 0.27922,1.02674 0,0 0.14961,1.14007 0.4676,1.68089 0.31693,0.54121 0.6344,1.25202 0.6344,1.25202 0,0 -0.50416,-0.18663 -0.72746,-0.31795 -0.22493,-0.13015 -0.44823,-0.52301 -1.40168,-0.89583 -0.95239,-0.37453 -1.92362,-0.71025 -2.05495,-0.67259 -0.13072,0.0363 -1.49365,0.57881 -1.77509,2.29757 -0.27925,1.71865 -0.46598,3.43674 -0.39173,4.61396 0.0743,1.17785 -0.46649,2.91481 0,3.97903 0.46707,1.06501 1.79342,2.82105 2.83942,2.9701 1.04654,0.15071 1.71864,-0.37283 2.1862,-0.54227 0.4665,-0.16837 0.67259,-0.80168 0.3546,-1.68041 -0.31746,-0.87819 -0.39227,-0.69092 -0.24267,-1.13966 0.15009,-0.4481 0.46756,-0.93469 0.46756,-0.93469 0,0 1.51308,2.61679 3.8478,3.94201 2.33524,1.32587 5.3985,2.69037 7.65891,3.62382 2.26049,0.93469 3.73641,1.94358 5.19299,1.51312 1.45761,-0.42879 2.95183,-1.39937 3.45603,-1.86643 0.50362,-0.46769 0.44876,-1.12096 0.42887,-1.99908 -0.0181,-0.87819 -0.6721,-2.18615 -0.68984,-2.24201 -0.0195,-0.0561 2.35297,0.29969 3.62283,-0.93431 1.27095,-1.23251 1.66374,-1.81163 1.72024,-2.74676 0.0549,-0.93357 0.0363,-1.83 -0.59942,-2.989 -0.63436,-1.15792 -2.16737,-3.34298 -2.83833,-4.46432 -0.67203,-1.12025 -1.75625,-2.25991 -2.59727,-3.21244 -0.84155,-0.95389 -1.30752,-1.2145 -1.77511,-1.66264 -0.46653,-0.44928 -0.57897,-0.48588 -0.41004,-0.69085 0.16737,-0.20656 0.46654,-0.35564 0.48483,-1.14126 0.0195,-0.78443 0.26203,-0.87708 -0.0181,-1.41898 -0.2798,-0.54119 -0.39222,-0.46643 -0.2798,-1.21449 0.11194,-0.74824 0,-0.54227 -0.037,-1.21415 -0.039,-0.6726 -0.0937,-1.02786 -0.1496,-1.83122 -0.0565,-0.8033 0.0743,-3.60466 -0.0377,-5.0257 -0.11246,-1.4188 -0.39226,-4.33303 -0.57949,-5.04328 0,0 0.42989,-1.60666 0.95288,-2.44663 0.52414,-0.84045 0.56123,-1.53294 0.97286,-1.84987 0.40999,-0.31693 0.72745,-0.57896 0.97068,-1.40116 0.24214,-0.82109 0.24214,-1.82997 0.728,-2.42941 0.48536,-0.59668 1.38236,-1.56742 1.30809,-1.94244 -0.0753,-0.3729 -0.52356,-0.61552 -0.98954,-0.33524 -0.46702,0.28038 -0.8598,0.61561 -0.97231,0.93414 -0.11243,0.31799 -0.35513,0.67312 -0.56066,0.54018 -0.205,-0.13068 -0.46707,-0.44602 -0.52357,-0.65376 -0.0549,-0.20495 0.26317,-0.42882 0.26317,-0.42882 0,0 2.12915,-0.87756 2.95184,-1.38228 0.82113,-0.50416 1.64439,-1.40007 2.16681,-2.68989 0.5225,-1.28868 1.66322,-3.88644 1.86823,-7.54755 0.20498,-3.66102 0.0554,-4.63171 0.31746,-5.10094 0.26206,-0.46543 0.48642,-1.11968 0.0383,-2.18458 -0.44929,-1.065376 -0.74847,-1.699176 -1.15902,-2.035471 0,0 -0.2249,-0.429965 -0.2249,-0.916355 0,-0.48532 -0.18564,-1.437225 -0.41002,-1.643815 -0.22384,-0.204465 -0.59886,-0.40999 -0.5596,-0.01815 0.0359,0.393365 0.22383,1.83161 0.0737,1.775115"
         style="display:inline;fill:#99999f;fill-opacity:1;fill-rule:nonzero;stroke:#00000f;stroke-width:0.375;stroke-miterlimit:4;stroke-dasharray:none;stroke-opacity:1"
         id="path1147" />
    </g>
    <g
       id="g1155"
       transform="matrix(0.16435848,0,0,0.16435848,1253.1711,87.069572)"
       style="opacity:0.65">
      <path
         transform="matrix(5.1965,0,0,5.3726,-738.86,-644.43)"
         d="m 324.45,213.01 a 86.051,83.23 0 1 1 -172.1,0 86.051,83.23 0 1 1 172.1,0 z"
         fill="none"
         stroke="#ff0000"
         stroke-width="20"
         id="path1151" />
      <path
         d="M 166.83,166.83 833.16,833.16"
         fill="none"
         stroke="#ff0000"
         stroke-width="100"
         id="path1153" />
    </g>
    <path
       id="path1171"
       style="fill:none;fill-opacity:1;stroke:#33333f;stroke-width:1.5;stroke-linejoin:miter;stroke-miterlimit:4;stroke-dasharray:none;stroke-opacity:1"
       d="M 1318.6602 282.29688 A 79.748215 43.069283 0 0 0 1239.3672 325.36523 A 79.748215 43.069283 0 0 0 1252.1797 348.77734 C 1243.8579 359.53516 1234.5517 361.43527 1225.416 364.86719 C 1240.2916 365.10403 1254.0207 363.18314 1262.8633 355.89453 A 79.748215 43.069283 0 0 0 1319.1152 368.43359 A 79.748215 43.069283 0 0 0 1398.8633 325.36523 A 79.748215 43.069283 0 0 0 1319.1152 282.29688 A 79.748215 43.069283 0 0 0 1318.6602 282.29688 z " />
    <g
       id="g1165"
       transform="matrix(0.97456165,0,0,0.97456165,1091.071,60.104798)"
       style="display:inline;stroke-width:1.00044979;stroke-miterlimit:4;stroke-dasharray:none">
      <path
         d="m 104.5119,151.63857 c -14.5,5.83 -30.82,0.62 -40.09,-12.8 -9.27,-13.42 -9.27,-31.84 0,-45.259998 9.27,-13.41 25.59,-18.62 40.09,-12.79 -0.11,-23.63 13.32,-44.85 33.72,-53.26 20.39,-8.41 43.46,-2.25 57.89,15.47 9.27,-25.11 31.74,-41.58 56.71,-41.58 24.98,0 47.44,16.47 56.71,41.58 14.83,-14.47 35.96,-18.55 54.5,-10.52 18.53,8.02 31.23,26.76 32.75,48.31 14.51,-5.83 30.83,-0.62 40.1,12.79 9.26,13.419998 9.26,31.839998 0,45.259998 -9.27,13.42 -25.59,18.63 -40.1,12.8 -1.58,22.77 -15.63,42.3 -35.65,49.52 -20.01,7.22 -42.07,0.73 -55.96,-16.46 -11.04,19.89 -30.91,32.06 -52.35,32.06 -21.43,0 -41.3,-12.17 -52.34,-32.06 -10.54,22.95 -40.57,34.16 -67.08,25.03 -26.5,-9.13 -39.44,-35.14 -28.9,-58.09 z"
         fill="none"
         stroke="#000000"
         stroke-linejoin="round"
         stroke-miterlimit="10"
         pointer-events="all"
         id="path1157"
         style="display:inline;stroke-width:1.00044979;stroke-miterlimit:4;stroke-dasharray:none" />
      <ellipse
         cx="117.60191"
         cy="231.92857"
         rx="26.174095"
         ry="12.752443"
         fill="transparent"
         stroke="#000000"
         pointer-events="all"
         id="ellipse1159"
         style="display:inline;fill:none;stroke-width:1.00044979;stroke-miterlimit:4;stroke-dasharray:none" />
      <ellipse
         cx="87.071899"
         cy="262.62857"
         rx="16.576927"
         ry="8.5016289"
         fill="transparent"
         stroke="#000000"
         pointer-events="all"
         id="ellipse1161"
         style="display:inline;fill:none;stroke-width:1.00044979;stroke-miterlimit:4;stroke-dasharray:none" />
      <ellipse
         cx="62.2019"
         cy="285.29855"
         rx="10.469638"
         ry="6.1400652"
         fill="transparent"
         stroke="#000000"
         pointer-events="all"
         id="ellipse1163"
         style="display:inline;fill:none;stroke-width:1.00044979;stroke-miterlimit:4;stroke-dasharray:none" />
    </g>
    <text
       xml:space="preserve"
       style="font-style:normal;font-weight:normal;font-size:40px;line-height:1.25;font-family:sans-serif;fill:#333333;fill-opacity:1;stroke:none"
       x="1270.8674"
       y="339.56073"
       id="text1169"><tspan
         id="tspan1167"
         x="1270.8674"
         y="339.56073">Stop!</tspan></text>
  </g>
  <g
     id="layer1"
     style="display:inline">
    <path
       style="fill:none;fill-opacity:1;fill-rule:evenodd;stroke:#666666;stroke-width:3;stroke-linecap:butt;stroke-linejoin:round;stroke-miterlimit:4.9;stroke-dasharray:none;stroke-opacity:1;marker-end:url(#Arrow2Lend);paint-order:normal"
       d="m 450,40.588563 c 54.76257,-42.3979559 103.61805,-32.2090383 150,0"
       id="path5156" />
    <path
       style="fill:none;fill-opacity:1;fill-rule:evenodd;stroke:#666666;stroke-width:3;stroke-linecap:butt;stroke-linejoin:round;stroke-miterlimit:4.9;stroke-dasharray:none;stroke-opacity:1;marker-end:url(#marker5921);paint-order:normal"
       d="m 1000,40.588563 c 46.9052,-33.0437953 96.0992,-41.649454 150,0"
       id="path5917" />
  </g>
</svg>
