<?xml version="1.0" standalone="no"?><!DOCTYPE svg PUBLIC "-//W3C//DTD SVG 1.1//EN" "http://www.w3.org/Graphics/SVG/1.1/DTD/svg11.dtd"><svg xmlns:xlink="http://www.w3.org/1999/xlink" version="1.1" style="font-family:open sans;font-size:12px;" xmlns="http://www.w3.org/2000/svg" width="1040" height="410"><desc>Created with Highcharts 4.1.5</desc><defs><clipPath id="highcharts-63"><rect x="0" y="0" width="860" height="210"></rect></clipPath></defs><rect x="0" y="0" width="1040" height="410" strokeWidth="0" fill="#FFFFFF" class=" highcharts-background"></rect><g class="highcharts-grid" ></g><g class="highcharts-grid" ></g><g class="highcharts-grid" ><path fill="none" d="M 113 338.5 L 973 338.5" stroke="#D8D8D8" stroke-width="1"  opacity="1"></path><path fill="none" d="M 113 278.5 L 973 278.5" stroke="#D8D8D8" stroke-width="1"  opacity="1"></path><path fill="none" d="M 113 218.5 L 973 218.5" stroke="#D8D8D8" stroke-width="1"  opacity="1"></path><path fill="none" d="M 113 158.5 L 973 158.5" stroke="#D8D8D8" stroke-width="1"  opacity="1"></path></g><g class="highcharts-grid" ></g><g class="highcharts-axis" ><path fill="none" d="M 198.5 338 L 198.5 348" stroke="#C0D0E0" stroke-width="1" opacity="1"></path><path fill="none" d="M 284.5 338 L 284.5 348" stroke="#C0D0E0" stroke-width="1" opacity="1"></path><path fill="none" d="M 370.5 338 L 370.5 348" stroke="#C0D0E0" stroke-width="1" opacity="1"></path><path fill="none" d="M 456.5 338 L 456.5 348" stroke="#C0D0E0" stroke-width="1" opacity="1"></path><path fill="none" d="M 542.5 338 L 542.5 348" stroke="#C0D0E0" stroke-width="1" opacity="1"></path><path fill="none" d="M 628.5 338 L 628.5 348" stroke="#C0D0E0" stroke-width="1" opacity="1"></path><path fill="none" d="M 714.5 338 L 714.5 348" stroke="#C0D0E0" stroke-width="1" opacity="1"></path><path fill="none" d="M 800.5 338 L 800.5 348" stroke="#C0D0E0" stroke-width="1" opacity="1"></path><path fill="none" d="M 886.5 338 L 886.5 348" stroke="#C0D0E0" stroke-width="1" opacity="1"></path><path fill="none" d="M 973.5 338 L 973.5 348" stroke="#C0D0E0" stroke-width="1" opacity="1"></path><path fill="none" d="M 112.5 338 L 112.5 348" stroke="#C0D0E0" stroke-width="1" opacity="1"></path><path fill="none" d="M 113 338.5 L 973 338.5" stroke="#C0D0E0" stroke-width="1"  visibility="visible"></path></g><g class="highcharts-axis" ><path fill="none" d="M 198.5 128 L 198.5 118" stroke="#C0D0E0" stroke-width="1" opacity="1"></path><path fill="none" d="M 284.5 128 L 284.5 118" stroke="#C0D0E0" stroke-width="1" opacity="1"></path><path fill="none" d="M 370.5 128 L 370.5 118" stroke="#C0D0E0" stroke-width="1" opacity="1"></path><path fill="none" d="M 456.5 128 L 456.5 118" stroke="#C0D0E0" stroke-width="1" opacity="1"></path><path fill="none" d="M 542.5 128 L 542.5 118" stroke="#C0D0E0" stroke-width="1" opacity="1"></path><path fill="none" d="M 628.5 128 L 628.5 118" stroke="#C0D0E0" stroke-width="1" opacity="1"></path><path fill="none" d="M 714.5 128 L 714.5 118" stroke="#C0D0E0" stroke-width="1" opacity="1"></path><path fill="none" d="M 800.5 128 L 800.5 118" stroke="#C0D0E0" stroke-width="1" opacity="1"></path><path fill="none" d="M 886.5 128 L 886.5 118" stroke="#C0D0E0" stroke-width="1" opacity="1"></path><path fill="none" d="M 973.5 128 L 973.5 118" stroke="#C0D0E0" stroke-width="1" opacity="1"></path><path fill="none" d="M 112.5 128 L 112.5 118" stroke="#C0D0E0" stroke-width="1" opacity="1"></path><path fill="none" d="M 113 127.5 L 973 127.5" stroke="#C0D0E0" stroke-width="1"  visibility="visible"></path></g><g class="highcharts-axis" ><text x="1016.3333339691162"  text-anchor="middle" transform="translate(0,0) rotate(90 1016.3333339691162 233)" class=" highcharts-yaxis-title" style="color:#000000;fill:#000000;" visibility="visible" y="233"><tspan>Margarine consumed</tspan></text></g><g class="highcharts-axis" ><text x="24.450000762939453"  text-anchor="middle" transform="translate(0,0) rotate(270 24.450000762939453 233)" class=" highcharts-yaxis-title" style="color:#ba0f27;fill:#ba0f27;" visibility="visible" y="233"><tspan>Divorce rate in Maine</tspan></text></g><g class="highcharts-series-group" ><g class="highcharts-series" visibility="visible"  transform="translate(113,128) scale(1 1)" clip-path="url(#highcharts-63)"><path fill="none" d="M 43 24.00000000000003 C 43 24.00000000000003 94.6 49.8 129 60 C 163.4 70.19999999999999 180.6 64.8 215 75 C 249.4 85.2 266.6 108 301 111 C 335.4 114 352.6 111 387 114 C 421.4 117 438.6 150 473 150 C 507.4 150 524.6 132 559 132 C 593.4 132 610.6 132.6 645 135 C 679.4 137.39999999999998 696.6 139.20000000000002 731 144 C 765.4 148.8 817 159 817 159" stroke="#000000" stroke-width="2"  stroke-linejoin="round" stroke-linecap="round"></path></g><g class="highcharts-markers" visibility="visible"  transform="translate(113,128) scale(1 1)" clip-path="none"><path fill="#000000" d="M 817 155 C 822.328 155 822.328 163 817 163 C 811.672 163 811.672 155 817 155 Z"></path><path fill="#000000" d="M 731 140 C 736.328 140 736.328 148 731 148 C 725.672 148 725.672 140 731 140 Z"></path><path fill="#000000" d="M 645 131 C 650.328 131 650.328 139 645 139 C 639.672 139 639.672 131 645 131 Z"></path><path fill="#000000" d="M 559 128 C 564.328 128 564.328 136 559 136 C 553.672 136 553.672 128 559 128 Z"></path><path fill="#000000" d="M 473 146 C 478.328 146 478.328 154 473 154 C 467.672 154 467.672 146 473 146 Z"></path><path fill="#000000" d="M 387 110 C 392.328 110 392.328 118 387 118 C 381.672 118 381.672 110 387 110 Z"></path><path fill="#000000" d="M 301 107 C 306.328 107 306.328 115 301 115 C 295.672 115 295.672 107 301 107 Z"></path><path fill="#000000" d="M 215 71 C 220.328 71 220.328 79 215 79 C 209.672 79 209.672 71 215 71 Z"></path><path fill="#000000" d="M 129 56 C 134.328 56 134.328 64 129 64 C 123.672 64 123.672 56 129 56 Z"></path><path fill="#000000" d="M 43 20.00000000000003 C 48.328 20.00000000000003 48.328 28.00000000000003 43 28.00000000000003 C 37.672 28.00000000000003 37.672 20.00000000000003 43 20.00000000000003 Z"></path></g><g class="highcharts-series" visibility="visible"  transform="translate(113,128) scale(1 1)" clip-path="url(#highcharts-63)"><path fill="none" d="M 43 0 C 43 0 94.6 44.42307692307686 129 60.57692307692304 C 163.4 76.7307692307692 180.6 68.65384615384626 215 80.76923076923086 C 249.4 92.88461538461547 266.6 109.03846153846149 301 121.15384615384609 C 335.4 133.2692307692307 352.6 129.23076923076923 387 141.34615384615387 C 421.4 153.4615384615385 438.6 181.73076923076928 473 181.73076923076928 C 507.4 181.73076923076928 524.6 161.5384615384615 559 161.5384615384615 C 593.4 161.5384615384615 610.6 161.5384615384615 645 161.5384615384615 C 679.4 161.5384615384615 696.6 161.5384615384615 731 161.5384615384615 C 765.4 161.5384615384615 817 181.73076923076928 817 181.73076923076928" stroke="#ba0f27" stroke-width="2"  stroke-linejoin="round" stroke-linecap="round"></path></g><g class="highcharts-markers" visibility="visible"  transform="translate(113,128) scale(1 1)" clip-path="none"><path fill="#ba0f27" d="M 817 177.73076923076928 L 821 181.73076923076928 817 185.73076923076928 813 181.73076923076928 Z"></path><path fill="#ba0f27" d="M 731 157.5384615384615 L 735 161.5384615384615 731 165.5384615384615 727 161.5384615384615 Z"></path><path fill="#ba0f27" d="M 645 157.5384615384615 L 649 161.5384615384615 645 165.5384615384615 641 161.5384615384615 Z"></path><path fill="#ba0f27" d="M 559 157.5384615384615 L 563 161.5384615384615 559 165.5384615384615 555 161.5384615384615 Z"></path><path fill="#ba0f27" d="M 473 177.73076923076928 L 477 181.73076923076928 473 185.73076923076928 469 181.73076923076928 Z"></path><path fill="#ba0f27" d="M 387 137.34615384615387 L 391 141.34615384615387 387 145.34615384615387 383 141.34615384615387 Z"></path><path fill="#ba0f27" d="M 301 117.15384615384609 L 305 121.15384615384609 301 125.15384615384609 297 121.15384615384609 Z"></path><path fill="#ba0f27" d="M 215 76.76923076923086 L 219 80.76923076923086 215 84.76923076923086 211 80.76923076923086 Z"></path><path fill="#ba0f27" d="M 129 56.57692307692304 L 133 60.57692307692304 129 64.57692307692304 125 60.57692307692304 Z"></path><path fill="#ba0f27" d="M 43 -4 L 47 0 43 4 39 0 Z"></path></g></g><text x="520" text-anchor="middle" class="highcharts-title"  style="color:#777;font-size:18px;fill:#777;width:976px;" y="24"><tspan style="fill:#ba0f27;font-size:24px;font-weight:bold;font-family: 'lora'">Divorce rate in Maine</tspan><tspan style="font-family: 'lora'" x="520" dy="21"> correlates with </tspan><tspan style="fill:#000000;font-size:24px;font-weight:bold;font-family: 'lora'" x="520" dy="29">Per capita consumption of margarine</tspan></text><g class="highcharts-legend"  transform="translate(370,370)"><g ><g><g class="highcharts-legend-item"  transform="translate(8,3)"><path fill="none" d="M 0 11 L 16 11" stroke="#000000" stroke-width="2"></path><path fill="#000000" d="M 8 7 C 13.328 7 13.328 15 8 15 C 2.6719999999999997 15 2.6719999999999997 7 8 7 Z"></path><text x="21" style="color:#333333;font-size:12px;font-weight:bold;cursor:pointer;fill:#333333;" text-anchor="start"  y="15"><tspan>Margarine consumed</tspan></text></g><g class="highcharts-legend-item"  transform="translate(158.66666412353516,3)"><path fill="none" d="M 0 11 L 16 11" stroke="#ba0f27" stroke-width="2"></path><path fill="#ba0f27" d="M 8 7 L 12 11 8 15 4 11 Z"></path><text x="21" y="15" style="color:#333333;font-size:12px;font-weight:bold;cursor:pointer;fill:#333333;" text-anchor="start" ><tspan>Divorce rate in Maine</tspan></text></g></g></g></g><g class="highcharts-axis-labels highcharts-xaxis-labels" ><text x="156" style="color:#000000;cursor:default;font-size:11px;fill:#000000;width:75px;text-overflow:clip;" text-anchor="middle" transform="translate(0,0)" y="357" opacity="1">2000</text><text x="242" style="color:#000000;cursor:default;font-size:11px;fill:#000000;width:75px;text-overflow:clip;" text-anchor="middle" transform="translate(0,0)" y="357" opacity="1">2001</text><text x="328" style="color:#000000;cursor:default;font-size:11px;fill:#000000;width:75px;text-overflow:clip;" text-anchor="middle" transform="translate(0,0)" y="357" opacity="1">2002</text><text x="414" style="color:#000000;cursor:default;font-size:11px;fill:#000000;width:75px;text-overflow:clip;" text-anchor="middle" transform="translate(0,0)" y="357" opacity="1">2003</text><text x="500" style="color:#000000;cursor:default;font-size:11px;fill:#000000;width:75px;text-overflow:clip;" text-anchor="middle" transform="translate(0,0)" y="357" opacity="1">2004</text><text x="586" style="color:#000000;cursor:default;font-size:11px;fill:#000000;width:75px;text-overflow:clip;" text-anchor="middle" transform="translate(0,0)" y="357" opacity="1">2005</text><text x="672" style="color:#000000;cursor:default;font-size:11px;fill:#000000;width:75px;text-overflow:clip;" text-anchor="middle" transform="translate(0,0)" y="357" opacity="1">2006</text><text x="758" style="color:#000000;cursor:default;font-size:11px;fill:#000000;width:75px;text-overflow:clip;" text-anchor="middle" transform="translate(0,0)" y="357" opacity="1">2007</text><text x="844" style="color:#000000;cursor:default;font-size:11px;fill:#000000;width:75px;text-overflow:clip;" text-anchor="middle" transform="translate(0,0)" y="357" opacity="1">2008</text><text x="930" style="color:#000000;cursor:default;font-size:11px;fill:#000000;width:75px;text-overflow:clip;" text-anchor="middle" transform="translate(0,0)" y="357" opacity="1">2009</text></g><g class="highcharts-axis-labels highcharts-xaxis-labels" ><text x="156" style="color:#ba0f27;cursor:default;font-size:11px;fill:#ba0f27;width:75px;text-overflow:clip;" text-anchor="middle" transform="translate(0,0)" y="113" opacity="1">2000</text><text x="242" style="color:#ba0f27;cursor:default;font-size:11px;fill:#ba0f27;width:75px;text-overflow:clip;" text-anchor="middle" transform="translate(0,0)" y="113" opacity="1">2001</text><text x="328" style="color:#ba0f27;cursor:default;font-size:11px;fill:#ba0f27;width:75px;text-overflow:clip;" text-anchor="middle" transform="translate(0,0)" y="113" opacity="1">2002</text><text x="414" style="color:#ba0f27;cursor:default;font-size:11px;fill:#ba0f27;width:75px;text-overflow:clip;" text-anchor="middle" transform="translate(0,0)" y="113" opacity="1">2003</text><text x="500" style="color:#ba0f27;cursor:default;font-size:11px;fill:#ba0f27;width:75px;text-overflow:clip;" text-anchor="middle" transform="translate(0,0)" y="113" opacity="1">2004</text><text x="586" style="color:#ba0f27;cursor:default;font-size:11px;fill:#ba0f27;width:75px;text-overflow:clip;" text-anchor="middle" transform="translate(0,0)" y="113" opacity="1">2005</text><text x="672" style="color:#ba0f27;cursor:default;font-size:11px;fill:#ba0f27;width:75px;text-overflow:clip;" text-anchor="middle" transform="translate(0,0)" y="113" opacity="1">2006</text><text x="758" style="color:#ba0f27;cursor:default;font-size:11px;fill:#ba0f27;width:75px;text-overflow:clip;" text-anchor="middle" transform="translate(0,0)" y="113" opacity="1">2007</text><text x="844" style="color:#ba0f27;cursor:default;font-size:11px;fill:#ba0f27;width:75px;text-overflow:clip;" text-anchor="middle" transform="translate(0,0)" y="113" opacity="1">2008</text><text x="930" style="color:#ba0f27;cursor:default;font-size:11px;fill:#ba0f27;width:75px;text-overflow:clip;" text-anchor="middle" transform="translate(0,0)" y="113" opacity="1">2009</text></g><g class="highcharts-axis-labels highcharts-yaxis-labels" ><text x="988" style="color:#000000;cursor:default;font-size:11px;fill:#000000;width:333px;text-overflow:clip;" text-anchor="start" transform="translate(0,0)" y="343" opacity="1">2lbs</text><text x="988" style="color:#000000;cursor:default;font-size:11px;fill:#000000;width:333px;text-overflow:clip;" text-anchor="start" transform="translate(0,0)" y="283" opacity="1">4lbs</text><text x="988" style="color:#000000;cursor:default;font-size:11px;fill:#000000;width:333px;text-overflow:clip;" text-anchor="start" transform="translate(0,0)" y="223" opacity="1">6lbs</text><text x="988" style="color:#000000;cursor:default;font-size:11px;fill:#000000;width:333px;text-overflow:clip;" text-anchor="start" transform="translate(0,0)" y="163" opacity="1">8lbs</text></g><g class="highcharts-axis-labels highcharts-yaxis-labels" ><text x="98" style="color:#ba0f27;cursor:default;font-size:11px;fill:#ba0f27;width:333px;text-overflow:clip;" text-anchor="end" transform="translate(0,0)" y="343" opacity="1"><tspan>3.96 per 1,000</tspan></text><text x="98" style="color:#ba0f27;cursor:default;font-size:11px;fill:#ba0f27;width:333px;text-overflow:clip;" text-anchor="end" transform="translate(0,0)" y="276" opacity="1"><tspan>4.29 per 1,000</tspan></text><text x="98" style="color:#ba0f27;cursor:default;font-size:11px;fill:#ba0f27;width:333px;text-overflow:clip;" text-anchor="end" transform="translate(0,0)" y="210" opacity="1"><tspan>4.62 per 1,000</tspan></text><text x="98" style="color:#ba0f27;cursor:default;font-size:11px;fill:#ba0f27;width:333px;text-overflow:clip;" text-anchor="end" transform="translate(0,0)" y="143" opacity="1"><tspan>4.95 per 1,000</tspan></text></g><g class="highcharts-tooltip"  style="cursor:default;padding:0;white-space:nowrap;" transform="translate(0,-9999)"><path fill="none" d="M 3 0 L 13 0 C 16 0 16 0 16 3 L 16 13 C 16 16 16 16 13 16 L 3 16 C 0 16 0 16 0 13 L 0 3 C 0 0 0 0 3 0"  stroke="black" stroke-opacity="0.049999999999999996" stroke-width="5" transform="translate(1, 1)"></path><path fill="none" d="M 3 0 L 13 0 C 16 0 16 0 16 3 L 16 13 C 16 16 16 16 13 16 L 3 16 C 0 16 0 16 0 13 L 0 3 C 0 0 0 0 3 0"  stroke="black" stroke-opacity="0.09999999999999999" stroke-width="3" transform="translate(1, 1)"></path><path fill="none" d="M 3 0 L 13 0 C 16 0 16 0 16 3 L 16 13 C 16 16 16 16 13 16 L 3 16 C 0 16 0 16 0 13 L 0 3 C 0 0 0 0 3 0"  stroke="black" stroke-opacity="0.15" stroke-width="1" transform="translate(1, 1)"></path><path fill="rgb(249, 249, 249)" fill-opacity=" .85" d="M 3 0 L 13 0 C 16 0 16 0 16 3 L 16 13 C 16 16 16 16 13 16 L 3 16 C 0 16 0 16 0 13 L 0 3 C 0 0 0 0 3 0"></path><text x="8"  style="font-size:12px;color:#333333;fill:#333333;" transform="translate(0,20)"></text></g></svg>
