<?xml version="1.0" encoding="UTF-8" standalone="no"?>
<svg
   xmlns:dc="http://purl.org/dc/elements/1.1/"
   xmlns:cc="http://creativecommons.org/ns#"
   xmlns:rdf="http://www.w3.org/1999/02/22-rdf-syntax-ns#"
   xmlns:svg="http://www.w3.org/2000/svg"
   xmlns="http://www.w3.org/2000/svg"
   width="501"
   height="501"
   viewBox="0 0 501 501"
   version="1.1"
   id="svg8">
  <defs
     id="defs2">
    <linearGradient
       id="d"
       x1="131.75"
       x2="111.82"
       y1="738.96997"
       y2="716.10999"
       gradientUnits="userSpaceOnUse">
      <stop
         stop-color="#b44"
         offset="0"
         id="stop5" />
      <stop
         stop-color="#cf6969"
         offset="1"
         id="stop7" />
    </linearGradient>
    <filter
       id="a"
       x="-0.36000001"
       y="-0.36000001"
       width="1.72"
       height="1.72">
      <feGaussianBlur
         stdDeviation="2.46429"
         id="feGaussianBlur2" />
    </filter>
  </defs>
  <metadata
     id="metadata5">
    <rdf:RDF>
      <cc:Work
         rdf:about="">
        <dc:format>image/svg+xml</dc:format>
        <dc:type
           rdf:resource="http://purl.org/dc/dcmitype/StillImage" />
        <dc:title></dc:title>
      </cc:Work>
    </rdf:RDF>
  </metadata>
  <g
     id="layer8"
     style="display:inline">
    <rect
       style="fill:none;stroke:#333333;stroke-width:1;stroke-miterlimit:4;stroke-dasharray:none;stroke-opacity:1"
       id="rect3071"
       width="500"
       height="500"
       x="0.5"
       y="0.5" />
  </g>
  <g
     id="layer6"
     style="display:inline">
    <path
       d="m 408.08831,308.63939 c 0,0 -0.5401,-1.39327 1.61867,-2.55921 0,0 0.26886,-0.90189 1.75317,-1.08084 0,0 0.22659,-1.17087 2.06986,-0.81082 0,0 0.17796,-0.8463 1.07782,-0.93927 0,0 0.0103,-0.0423 0.0329,-0.1002 0.0711,-0.18294 0.26594,-0.53389 0.64198,-0.2609 0.49343,0.3611 1.21431,1.0799 2.11419,1.25994 0.89894,0.179 0.58454,1.16873 0.58454,1.16873 l 0.62881,1.16695 -0.67535,0.36288 c 0,0 0.62997,1.34773 0,2.2901 -0.62996,0.94753 -1.43788,3.06173 -1.70883,3.9585 -0.26887,0.89884 -0.26887,1.6653 -0.26887,2.83507 0,1.16776 0.62997,9.08263 1.48217,12.14023 0.85647,3.0576 2.8786,5.48817 2.6543,7.10184 0,0 0,-0.22336 1.25767,-0.26887 1.26086,-0.0421 1.17097,-0.40443 2.06983,-0.26888 0.89883,0.13649 1.07884,0.36184 1.97667,0.13649 0.90193,-0.22665 1.08081,-0.49551 2.2507,-0.27204 1.16873,0.22439 1.16873,0.22439 1.16873,0.22439 0,0 0.18003,-0.44786 1.07887,-0.44786 0.9009,0 1.61763,-0.40537 2.6087,-0.80897 0.9887,-0.40433 1.48423,-0.35978 1.9352,-0.35978 0.4489,0 1.9321,-0.54009 3.05656,-0.62892 1.1252,-0.09 1.79767,-0.18106 2.0686,-0.40556 0.27094,-0.22544 0.58334,-0.27001 0.58334,-0.27001 0,0 0.045,-2.2476 -1.57217,-1.9787 -1.61883,0.27101 -3.95837,1.07884 -5.48613,-0.0897 -1.5288,-1.1688 0,-2.11316 -0.62997,-3.50856 -0.62997,-1.3923 -1.16977,-1.30317 -0.6745,-1.9777 0,0 -0.45089,-0.22342 -0.3598,-0.9009 0.0883,-0.6733 -0.0463,-1.79767 -0.54104,-1.88759 -0.49429,-0.0899 -1.3922,-0.0899 -1.70661,-0.80788 -0.31648,-0.7219 0.71988,-1.5288 0.71988,-1.5288 0,0 -2.51871,0.0426 -3.733,-1.30627 -1.2143,-1.34787 -2.56413,-3.10113 -1.43983,-3.63902 1.12343,-0.54201 5.75513,-2.78961 5.75513,-2.78961 0,0 1.70884,-4.22633 5.71061,-6.42863 4.00199,-2.20304 8.05036,-3.37487 11.69129,-0.5854 3.643,2.7877 4.7229,5.43973 4.7229,5.89062 0,0.449 0.1334,0.62994 0.26784,1.35081 0.1365,0.71807 -0.13444,1.25477 0.3155,1.3923 0.44993,0.13447 0.36208,0.13447 0.0907,0.81103 -0.27002,0.67328 -0.31441,1.61764 -0.58347,1.57411 0,0 -0.2264,1.79693 -0.85637,3.73006 -0.62893,1.9321 -0.94237,3.01303 -0.089,6.834 0,0 1.2143,-0.358 1.3488,-0.0894 0.13444,0.27011 0.90089,1.43884 1.3042,1.57431 0.40442,0.13444 1.89073,0.4945 2.9242,1.12343 1.03327,0.62789 4.0463,3.3275 5.62065,5.35157 1.57316,2.0243 3.64387,5.4852 3.28299,7.55589 -0.36104,2.06784 -1.03329,2.3792 -1.16881,4.17791 -0.13458,1.8018 0.0884,5.89163 -0.44994,10.5679 -0.54102,4.67936 -0.71998,11.37996 -0.44995,17.35943 0.27,5.98073 0.31538,11.24136 0.89989,15.10982 0.58546,3.86541 0.85434,5.53175 0.40337,6.02418 -0.4489,0.49632 -0.26785,1.57415 -0.26785,1.57415 0,0 0.40435,0.045 0.17984,0.98895 -0.22542,0.94632 -0.54092,5.21714 -1.16982,8.00583 -0.62891,2.78754 -1.30423,6.56503 -1.34981,7.23937 -0.0424,0.67453 0,1.43984 -0.26889,2.02433 -0.27093,0.58437 0.13239,1.25766 0.13239,2.02303 0,0.76438 1.57737,7.0149 1.17286,8.13943 -0.40642,1.12321 -1.84424,7.19487 -1.84424,7.19487 0,0 1.66427,3.68857 2.56414,7.2404 0.89986,3.55197 3.28315,10.92694 3.55202,18.0311 0.26891,7.10557 0.22447,12.9972 0.45096,13.17737 0.2244,0.17823 2.15774,2.1129 2.24864,3.01187 0.0901,0.89897 -0.045,3.19333 0.0901,4.63202 0.13459,1.43978 -0.0901,2.15768 0,3.68868 0.0892,1.52763 -0.0437,2.15773 -0.76626,2.83093 -0.71907,0.67557 -4.27088,1.48435 -7.01505,3.41727 -2.74107,1.93326 -6.3395,3.19526 -9.17264,3.05863 -2.83213,-0.13547 -8.23029,-1.21408 -8.13939,-2.47543 0.0903,-1.25853 -0.22534,-2.20173 0.67556,-3.3262 0.89884,-1.12526 3.012,-1.39347 3.7764,-2.2042 0.7644,-0.80767 0.0906,-0.7178 1.16874,-1.66517 1.07886,-0.94111 1.75434,-1.75253 2.42866,-2.56206 0.67453,-0.81014 1.12344,-0.67467 1.75331,-1.75327 0.62978,-1.0799 0.98983,-2.15773 0.98983,-2.15773 0,0 0.18003,-0.9896 0.22352,-1.21443 0.0477,-0.22627 0.58544,-1.57504 -0.35899,-2.06891 -0.9434,-0.4941 -5.97972,-4.67703 -6.38407,-9.39877 -0.4064,-4.72173 -3.01613,-14.88323 -3.64506,-18.03186 -0.6279,-3.14787 -1.93314,-5.39624 -1.93314,-5.39624 0,0 0.2699,4.9472 -0.40435,9.44272 -0.67451,4.49815 -1.43995,6.56612 -2.47425,9.39912 -1.0343,2.832 -0.94443,3.2818 0.045,5.03496 0.98883,1.75555 1.7987,5.08277 1.70775,8.14164 -0.0884,3.05733 -0.0884,3.91184 -0.36,4.00177 -0.2689,0.0899 -1.52777,1.12436 -6.83297,0.8119 -5.30622,-0.31728 -7.28593,-0.13655 -9.80454,0.67233 -2.51662,0.80897 -9.80152,0.80897 -10.8369,-1.6671 0,0 0,-0.9858 0,-1.48023 0,-0.49772 0.1345,-2.33867 2.78857,-2.56401 2.65215,-0.22576 3.46199,-1.07797 4.94629,-1.621 1.4843,-0.53803 2.83311,-1.12253 2.83311,-1.12253 0,0 0.0437,-4.4974 1.34778,-6.83477 1.30528,-2.33966 2.51861,-2.07003 2.60863,-4.6782 0.0907,-2.60791 -0.53897,-4.99316 -0.89889,-7.86843 -0.35891,-2.87693 -1.17087,-10.2072 -1.4853,-14.48183 -0.31344,-4.27 -0.89888,-8.1363 -0.0427,-12.00607 0.85237,-3.86613 -0.49743,-8.81157 0.89889,-13.48887 1.39226,-4.67935 2.33663,-12.4132 2.33663,-12.4132 0,0 -0.36094,-0.44994 -2.15869,-1.35081 -1.79875,-0.89682 -2.33762,-2.11218 -1.93321,-3.28092 0.40545,-1.16977 1.25985,-8.4993 1.48426,-12.77221 0.22653,-4.27175 1.61981,-7.24045 1.12539,-13.66886 -0.49545,-6.43063 1.30225,-14.70429 1.61671,-16.00774 0.31547,-1.30422 -2.92103,0.58441 -5.08071,0.76236 -2.15669,0.17897 -2.15669,0.17897 -2.15669,0.17897 0,0 0.0429,-3.10089 -1.30631,-3.99985 0,0 -10.38597,-1.75323 -10.92791,-4.9007 0,0 -1.8857,-3.5541 -2.02117,-8.9958 -0.1365,-5.44069 0.045,-11.78023 0.31445,-15.24423 0.26891,-3.46194 -1.3488,-4.22634 -1.57528,-5.43964 l -0.22446,-2.65507"
       style="fill:#99999f;fill-opacity:1;fill-rule:nonzero;stroke:#000000;stroke-width:0.75;stroke-miterlimit:4;stroke-dasharray:none;stroke-opacity:1"
       id="path4401" />
    <path
       d="m 448.37615,269.39935 c 0,0 -7.62666,0.28666 -10.952,7.72266 0,0 13.14267,6.50534 7.44934,10.50667 l -10.39734,6.96666 c 0,0 -0.704,-0.79066 -2.17333,0.136 -1.468,0.924 -13.94533,8.17734 -20.84267,10.268 0,0 -2.708,0.268 -2.14533,2.79067 0.56267,2.52 2.452,5.84533 4.71467,4.216 2.25866,-1.632 4.77333,-3.83333 8.60133,-4.59867 3.828,-0.772 14.12933,-7.88666 13.144,-10.75466 l 11.168,-7.044 c 0,0 2.48267,-0.95067 4.05867,1.548 l 5.78666,-3.85467 c 0,0 -4.44266,-5.41466 -8.412,-17.90266"
       style="fill:#99999f;fill-opacity:1;fill-rule:nonzero;stroke:#000000;stroke-width:0.75;stroke-miterlimit:4;stroke-dasharray:none;stroke-opacity:1"
       id="path4469" />
    <path
       d="m 370.8197,347.88694 c 0,0 -0.52295,-0.93526 -0.89639,-1.64439 -0.37449,-0.70813 -0.33797,-1.15898 -0.52412,-1.71973 -0.18511,-0.55844 -0.37229,-2.01564 -0.63383,-2.61388 -0.26255,-0.59842 -0.5607,-0.6726 -0.9718,-0.63608 0,0 -0.63493,-1.04386 -1.42052,-0.89417 -0.78341,0.14838 -0.52193,0.74678 -0.33572,1.60558 0.18724,0.86093 0.59726,1.86809 0.71136,3.06262 0.1119,1.19566 0.29912,1.79407 0.74354,2.65269 0.452,0.85996 1.38401,1.9436 1.53468,2.99074 0.1485,1.04482 0.44872,1.86711 0.74792,3.02396 0.29696,1.15898 1.2677,3.06486 0.63493,4.71131 -0.63493,1.64337 -2.05759,6.57309 -2.84104,9.15161 -0.78559,2.57738 -3.02612,5.26775 -4.07323,8.48218 -1.04599,3.20902 -1.60559,3.73422 -1.60559,3.73422 0,0 -0.85775,-0.14951 -1.75525,0.41318 -0.89745,0.55747 -0.93626,0.035 -1.75739,0.26056 -0.82211,0.22273 -1.08365,0.18604 -1.08365,0.18604 0,0 -0.67259,-1.34518 -1.15791,-1.34518 -0.48427,0 -1.23113,0.15066 -0.93405,1.67992 0,0 -1.26888,0.71239 -2.01679,0.71239 -0.75007,0 -0.89858,0.18621 -1.30851,0.26154 -0.41112,0.0727 -1.271,-0.48754 -2.28043,-0.63608 -1.00621,-0.15064 -2.6527,-0.5229 -2.6527,-0.5229 0,0 -1.64213,-0.26267 -2.01667,-0.26267 -0.37239,0 -0.55852,-0.11298 0.89747,-0.59727 1.45718,-0.48427 1.75523,-1.38384 0.93307,-2.28031 -0.82223,-0.89434 -0.78242,-0.85764 -0.7469,-1.53236 0.0377,-0.6726 0.70924,-0.96852 -0.67144,-1.75314 0,0 0.78444,-0.71026 0.37228,-1.23219 -0.40994,-0.5229 -1.00836,-1.23316 -0.59726,-1.71857 0.41113,-0.48967 1.79289,-1.60991 1.15796,-2.0942 -0.63603,-0.4853 -3.02609,-2.20503 -3.51252,-2.57738 -0.48646,-0.37442 -0.63493,-0.63712 -0.48646,-1.16002 0.15284,-0.52095 0.11196,-0.78346 -0.26146,-1.60564 -0.3745,-0.82009 -2.27716,-4.14539 -5.37974,-5.00516 -3.10249,-0.85984 -7.65778,-1.30752 -11.84301,0.55746 -4.18507,1.86809 -5.6788,7.58571 -4.74579,11.54709 0.93307,3.96023 2.6527,4.81672 4.2594,6.80126 1.60673,1.97684 3.73538,4.03113 3.3253,4.63053 0,0 -0.48532,0.60053 -0.48532,1.158 0,0.56287 0.15065,0.78671 -0.15066,1.23218 -0.29814,0.44988 -0.37128,0.97278 -0.56066,1.6077 -0.18725,0.63718 -1.3796,1.68206 -2.3535,3.3253 -0.96968,1.64555 -3.2123,3.36412 -3.69657,5.45511 -0.48865,2.09196 -1.15905,4.93194 -1.15905,6.35139 0,1.41937 0.48531,6.35139 1.12024,7.99579 0.63389,1.64324 0.93519,3.24784 1.42052,4.63379 0.48541,1.38073 0.48541,1.38073 0.48541,1.38073 0,0 0.0363,-0.14853 -0.113,0.41008 -0.14854,0.56172 -0.18514,1.0848 0.113,1.79603 0.29693,0.70928 0.85977,1.34421 1.08152,3.50924 0.226,2.16872 0.67472,2.5441 0.15279,3.47477 -0.52308,0.93545 -0.89753,0.74713 -0.11413,1.64569 0.7846,0.89548 1.30865,1.30866 1.30865,1.30866 0,0 -0.97285,0.85894 -1.04599,2.09099 -0.0753,1.23294 0.63591,2.24351 0.52194,2.61717 -0.11201,0.37002 -0.67047,1.79076 -0.93307,1.79076 -0.26048,0 -1.94245,-0.26066 -1.68099,1.3827 0.26267,1.64441 1.19567,1.30767 0.82113,1.94464 -0.37339,0.6359 -1.45704,1.34376 -1.15791,2.39103 0.29813,1.04425 0.6704,1.00845 0.33465,1.90376 -0.33465,0.89961 -1.2687,2.50545 -1.2687,2.50545 0,0 1.23218,0.74441 1.3817,0.8962 0.14961,0.14841 -0.14952,1.64236 0.113,1.64236 0.25941,0 0.44659,0 0.44659,0 0,0 -0.14739,1.12335 0.11414,2.3932 0.26146,1.26867 0.55845,2.05348 0.55845,2.05348 0,0 0.29921,2.28014 0.9352,3.36179 0.63386,1.08241 1.26879,2.50403 1.26879,2.50403 0,0 -1.00831,-0.37325 -1.45492,-0.6359 -0.44986,-0.2603 -0.89645,-1.04602 -2.80336,-1.79166 -1.90478,-0.74906 -3.84723,-1.4205 -4.10989,-1.34518 -0.26145,0.0725 -2.9873,1.15763 -3.55018,4.59514 -0.5585,3.4373 -0.93197,6.87348 -0.78346,9.22793 0.14854,2.35569 -0.93298,5.82962 0,7.95805 0.93413,2.13002 3.58684,5.64211 5.67883,5.94021 2.09309,0.30141 3.43729,-0.74567 4.3724,-1.08454 0.933,-0.33674 1.34519,-1.60336 0.70921,-3.36083 -0.63493,-1.75638 -0.78454,-1.38183 -0.48534,-2.27932 0.30018,-0.8962 0.93511,-1.86938 0.93511,-1.86938 0,0 3.02617,5.23358 7.69561,7.88403 4.67048,2.65173 10.79699,5.38074 15.31782,7.24764 4.52098,1.86937 7.47281,3.88715 10.38598,3.02623 2.91522,-0.85757 5.90365,-2.79873 6.91205,-3.73286 1.00725,-0.93537 0.89753,-2.24192 0.85774,-3.99816 -0.0363,-1.75637 -1.34419,-4.3723 -1.37967,-4.48401 -0.039,-0.11225 4.70594,0.59938 7.24566,-1.86862 2.54189,-2.46502 3.32748,-3.62327 3.44047,-5.49353 0.10983,-1.86714 0.0727,-3.66 -1.19883,-5.97799 -1.26872,-2.31585 -4.33474,-6.68596 -5.67667,-8.92865 -1.34406,-2.2405 -3.51249,-4.51982 -5.19454,-6.42488 -1.68309,-1.90778 -2.61504,-2.429 -3.55021,-3.32528 -0.93307,-0.89855 -1.15794,-0.97176 -0.82008,-1.3817 0.33473,-0.41312 0.93307,-0.71128 0.96966,-2.28251 0.039,-1.56887 0.52405,-1.75416 -0.0363,-2.83797 -0.5596,-1.08238 -0.78444,-0.93286 -0.5596,-2.42898 0.22388,-1.49648 0,-1.08454 -0.074,-2.4283 -0.078,-1.34519 -0.18736,-2.05572 -0.2992,-3.66244 -0.113,-1.6066 0.14854,-7.20931 -0.0753,-10.05139 -0.22493,-2.8376 -0.78453,-8.66607 -1.15898,-10.08656 0,0 0.85977,-3.21333 1.90575,-4.89326 1.04828,-1.68091 1.12247,-3.06589 1.94573,-3.69975 0.81998,-0.63386 1.4549,-1.15792 1.94135,-2.80231 0.48428,-1.64219 0.48428,-3.65995 1.456,-4.85882 0.97073,-1.19337 2.76472,-3.13484 2.61619,-3.88489 -0.15066,-0.7458 -1.04713,-1.23104 -1.97909,-0.67047 -0.93403,0.56075 -1.7196,1.23121 -1.94462,1.86827 -0.22485,0.63599 -0.71026,1.34624 -1.12131,1.08037 -0.41001,-0.26137 -0.93414,-0.89204 -1.04714,-1.30752 -0.10972,-0.40991 0.52634,-0.85765 0.52634,-0.85765 0,0 4.2583,-1.75512 5.90367,-2.76456 1.64227,-1.00832 3.28879,-2.80013 4.33363,-5.37977 1.04499,-2.57737 3.32644,-7.77289 3.73645,-15.09511 0.40997,-7.32204 0.11079,-9.26342 0.63493,-10.20188 0.52412,-0.93087 0.97284,-2.23936 0.0767,-4.36917 -0.89859,-2.13075 -1.49695,-3.39835 -2.31804,-4.07094 0,0 -0.4498,-0.85993 -0.4498,-1.83271 0,-0.97064 -0.37128,-2.87445 -0.82005,-3.28763 -0.44767,-0.40893 -1.19772,-0.81998 -1.1192,-0.0363 0.0718,0.78673 0.44766,3.66322 0.14746,3.55023"
       style="fill:#99999f;fill-opacity:1;fill-rule:nonzero;stroke:#00000f;stroke-width:0.75;stroke-miterlimit:4;stroke-dasharray:none;stroke-opacity:1"
       id="path4409" />
  </g>
  <g
     id="layer4"
     style="display:inline">
    <g
       id="g3175"
       transform="translate(196.7681,68.06422)">
      <g
         id="g3173">
        <g
           id="g3171"
           transform="translate(-185.2681,-68.561428)">
          <rect
             x="37"
             y="0"
             width="0"
             height="0"
             fill="none"
             stroke="#000000"
             pointer-events="all"
             id="rect3163" />
          <rect
             x="0"
             y="300"
             width="71.730003"
             height="190"
             fill="none"
             stroke="none"
             pointer-events="all"
             id="rect3165" />
          <ellipse
             cx="34.900002"
             cy="315.67999"
             rx="15.725868"
             ry="15.682784"
             fill="transparent"
             stroke="#000000"
             pointer-events="all"
             id="ellipse3167"
             style="fill:#008080" />
          <path
             d="m 16.32,481.31 c 0,4.79 3.95,8.69 8.81,8.69 4.88,0 8.83,-3.88 8.83,-8.69 v -72.82 h 3.93 l -0.02,72.82 c 0,4.79 3.95,8.69 8.81,8.69 4.85,0 8.8,-3.88 8.8,-8.69 l 0.04,-125.56 h 3.88 v 46.28 c 0,9.31 12.33,9.31 12.29,0 v -47.26 c 0,-10.28 -6.13,-20.35 -18.35,-20.35 L 18.1,334.38 C 6.96,334.38 0,343.32 0,354.49 v 47.54 c 0,9.25 12.39,9.25 12.39,0 v -46.28 h 3.95 z"
             fill="none"
             stroke="#000000"
             stroke-miterlimit="10"
             pointer-events="all"
             id="path3169"
             style="fill:#008080" />
        </g>
      </g>
    </g>
  </g>
  <g
     id="layer7">
    <g
       id="g5408"
       transform="matrix(1.2671326,0,0,1.2671326,-44.908298,-28.074132)">
      <path
         d="m 229.46816,78.250809 c 0,0 -0.27005,-0.696635 0.80933,-1.279605 0,0 0.13443,-0.450945 0.87659,-0.54042 0,0 0.11329,-0.585435 1.03493,-0.40541 0,0 0.089,-0.42315 0.53891,-0.469635 0,0 0.005,-0.02115 0.0164,-0.0501 0.0356,-0.09147 0.13297,-0.266945 0.32099,-0.13045 0.24671,0.18055 0.60715,0.53995 1.05709,0.62997 0.44947,0.0895 0.29227,0.584365 0.29227,0.584365 l 0.31441,0.583475 -0.33768,0.18144 c 0,0 0.31499,0.673865 0,1.14505 -0.31498,0.473765 -0.71894,1.530865 -0.85441,1.97925 -0.13444,0.44942 -0.13444,0.83265 -0.13444,1.417535 0,0.58388 0.31499,4.541315 0.74109,6.070115 0.42823,1.5288 1.4393,2.744085 1.32715,3.55092 0,0 0,-0.11168 0.62883,-0.134435 0.63043,-0.02105 0.58549,-0.202215 1.03492,-0.13444 0.44941,0.06825 0.53942,0.18092 0.98833,0.06825 0.45097,-0.113325 0.54041,-0.247755 1.12535,-0.13602 0.58437,0.112195 0.58437,0.112195 0.58437,0.112195 0,0 0.09,-0.22393 0.53943,-0.22393 0.45045,0 0.80882,-0.202685 1.30435,-0.404485 0.49435,-0.202165 0.74212,-0.17989 0.9676,-0.17989 0.22445,0 0.96605,-0.270045 1.52828,-0.31446 0.5626,-0.045 0.89884,-0.09053 1.0343,-0.20278 0.13547,-0.11272 0.29167,-0.135005 0.29167,-0.135005 0,0 0.0225,-1.1238 -0.78608,-0.98935 -0.80942,0.135505 -1.97919,0.53942 -2.74307,-0.04485 -0.7644,-0.5844 0,-1.05658 -0.31498,-1.75428 -0.31499,-0.69615 -0.58489,-0.651585 -0.33725,-0.98885 0,0 -0.22545,-0.11171 -0.1799,-0.45045 0.0442,-0.33665 -0.0232,-0.898835 -0.27052,-0.943795 -0.24715,-0.04495 -0.6961,-0.04495 -0.85331,-0.40394 -0.15824,-0.36095 0.35994,-0.7644 0.35994,-0.7644 0,0 -1.25935,0.0213 -1.8665,-0.653135 -0.60715,-0.673935 -1.28206,-1.550565 -0.71991,-1.81951 0.56171,-0.271005 2.87756,-1.394805 2.87756,-1.394805 0,0 0.85442,-2.113165 2.85531,-3.214315 2.00099,-1.10152 4.02518,-1.687435 5.84564,-0.2927 1.8215,1.39385 2.36145,2.719865 2.36145,2.94531 0,0.2245 0.0667,0.31497 0.13392,0.675405 0.0682,0.359035 -0.0672,0.627385 0.15775,0.69615 0.22497,0.06723 0.18104,0.06723 0.0454,0.405515 -0.13501,0.33664 -0.1572,0.80882 -0.29173,0.787055 0,0 -0.1132,0.898465 -0.42819,1.86503 -0.31446,0.96605 -0.47118,1.506515 -0.0445,3.417 0,0 0.60715,-0.179 0.6744,-0.0447 0.0672,0.135055 0.45045,0.71942 0.6521,0.787155 0.20221,0.06722 0.94537,0.24725 1.4621,0.561715 0.51664,0.313945 2.02315,1.66375 2.81033,2.675785 0.78658,1.01215 1.82193,2.7426 1.64149,3.777945 -0.18052,1.03392 -0.51664,1.1896 -0.5844,2.088955 -0.0673,0.9009 0.0442,2.945815 -0.22497,5.283951 -0.27051,2.33968 -0.35999,5.68998 -0.22498,8.67971 0.135,2.99037 0.15769,5.62068 0.44995,7.55491 0.29273,1.93271 0.42717,2.76588 0.20168,3.01209 -0.22445,0.24816 -0.13392,0.78708 -0.13392,0.78708 0,0 0.20217,0.0225 0.0899,0.49447 -0.11271,0.47316 -0.27046,2.60857 -0.58491,4.00292 -0.31446,1.39377 -0.65212,3.28251 -0.67491,3.61968 -0.0212,0.33727 0,0.71992 -0.13444,1.01217 -0.13547,0.29218 0.0662,0.62883 0.0662,1.01151 0,0.38219 0.78869,3.50745 0.58643,4.06972 -0.20321,0.5616 -0.92212,3.59743 -0.92212,3.59743 0,0 0.83214,1.84429 1.28207,3.6202 0.44993,1.77599 1.64158,5.46347 1.77601,9.01555 0.13446,3.55279 0.11224,6.4986 0.22548,6.58869 0.1122,0.0891 1.07887,1.05645 1.12432,1.50593 0.0451,0.44949 -0.0225,1.59667 0.0451,2.31601 0.0673,0.71989 -0.0451,1.07884 0,1.84434 0.0446,0.76382 -0.0218,1.07887 -0.38313,1.41547 -0.35953,0.33778 -2.13544,0.74217 -3.50752,1.70863 -1.37054,0.96663 -3.16975,1.59763 -4.58632,1.52932 -1.41607,-0.0677 -4.11515,-0.60704 -4.0697,-1.23772 0.0452,-0.62926 -0.11267,-1.10086 0.33778,-1.6631 0.44942,-0.56263 1.506,-0.69673 1.8882,-1.1021 0.3822,-0.40383 0.0453,-0.3589 0.58437,-0.83258 0.53943,-0.47056 0.87717,-0.87627 1.21433,-1.28103 0.33727,-0.40507 0.56172,-0.33734 0.87666,-0.87664 0.31489,-0.53995 0.49491,-1.07886 0.49491,-1.07886 0,0 0.09,-0.4948 0.11176,-0.60722 0.0239,-0.11313 0.29272,-0.78752 -0.17949,-1.03445 -0.4717,-0.24705 -2.98986,-2.33852 -3.19204,-4.69939 -0.2032,-2.36086 -1.50806,-7.44161 -1.82253,-9.01593 -0.31395,-1.57393 -0.96657,-2.69812 -0.96657,-2.69812 0,0 0.13495,2.4736 -0.20217,4.72136 -0.33726,2.24908 -0.71998,3.28306 -1.23713,4.69956 -0.51715,1.416 -0.47221,1.6409 0.0225,2.51748 0.49442,0.87778 0.89935,2.54139 0.85388,4.07082 -0.0442,1.52867 -0.0442,1.95592 -0.18,2.00089 -0.13445,0.045 -0.76389,0.56218 -3.41649,0.40595 -2.65311,-0.15864 -3.64296,-0.0683 -4.90227,0.33616 -1.25831,0.40449 -4.90076,0.40449 -5.41845,-0.83355 0,0 0,-0.4929 0,-0.74011 0,-0.24886 0.0673,-1.16934 1.39429,-1.28201 1.32607,-0.11288 1.73099,-0.53898 2.47314,-0.8105 0.74215,-0.26901 1.41656,-0.56126 1.41656,-0.56126 0,0 0.0219,-2.2487 0.67389,-3.41739 0.65264,-1.16983 1.2593,-1.03501 1.30431,-2.3391 0.0454,-1.30395 -0.26948,-2.49658 -0.44944,-3.93421 -0.17946,-1.43847 -0.58544,-5.1036 -0.74265,-7.24092 -0.15672,-2.135 -0.44944,-4.06815 -0.0213,-6.00303 0.42618,-1.93307 -0.24872,-4.40579 0.44944,-6.74444 0.69613,-2.33967 1.16832,-6.2066 1.16832,-6.2066 0,0 -0.18047,-0.22497 -1.07935,-0.6754 -0.89937,-0.44841 -1.16881,-1.05609 -0.9666,-1.64046 0.20272,-0.58489 0.62992,-4.24965 0.74213,-6.38611 0.11326,-2.13587 0.8099,-3.62022 0.56269,-6.83443 -0.24772,-3.21531 0.65113,-7.352141 0.80836,-8.003866 0.15773,-0.65211 -1.46052,0.292205 -2.54036,0.38118 -1.07834,0.08948 -1.07834,0.08948 -1.07834,0.08948 0,0 0.0214,-1.550445 -0.65316,-1.999925 0,0 -5.19298,-0.876615 -5.46395,-2.45035 0,0 -0.94285,-1.77705 -1.01059,-4.4979 -0.0683,-2.720345 0.0225,-5.890115 0.15723,-7.622115 0.13445,-1.73097 -0.6744,-2.11317 -0.78764,-2.71982 l -0.11223,-1.327535"
         style="display:inline;fill:#99999f;fill-opacity:1;fill-rule:nonzero;stroke:#000000;stroke-width:0.375;stroke-miterlimit:4;stroke-dasharray:none;stroke-opacity:1"
         id="path5396" />
      <path
         d="m 249.61208,58.63079 c 0,0 -3.81333,0.14333 -5.476,3.86133 0,0 6.57133,3.25267 3.72467,5.253334 l -5.19867,3.48333 c 0,0 -0.352,-0.39533 -1.08667,0.068 -0.734,0.462 -6.97266,4.08867 -10.42133,5.134 0,0 -1.354,0.134 -1.07267,1.395335 0.28134,1.26 1.226,2.922665 2.35734,2.108 1.12933,-0.816 2.38666,-1.916665 4.30066,-2.299335 1.914,-0.386 7.06467,-3.94333 6.572,-5.37733 l 5.584,-3.522 c 0,0 1.24134,-0.475335 2.02934,0.774 l 2.89333,-1.927335 c 0,0 -2.22133,-2.707329 -4.206,-8.951329"
         style="display:inline;fill:#99999f;fill-opacity:1;fill-rule:nonzero;stroke:#000000;stroke-width:0.375;stroke-miterlimit:4;stroke-dasharray:none;stroke-opacity:1"
         id="path5398" />
      <path
         d="m 210.83385,97.874584 c 0,0 -0.26147,-0.46763 -0.44819,-0.822195 -0.18725,-0.354065 -0.16899,-0.57949 -0.26206,-0.859865 -0.0926,-0.27922 -0.18615,-1.00782 -0.31692,-1.30694 -0.13127,-0.29921 -0.28035,-0.3363 -0.4859,-0.31804 0,0 -0.31746,-0.52193 -0.71026,-0.447085 -0.3917,0.07419 -0.26096,0.37339 -0.16786,0.80279 0.0936,0.430465 0.29863,0.934045 0.35568,1.53131 0.0559,0.59783 0.14956,0.897035 0.37177,1.326345 0.226,0.42998 0.69201,0.9718 0.76734,1.49537 0.0743,0.52241 0.22436,0.933556 0.37396,1.511976 0.14848,0.57949 0.63385,1.53243 0.31747,2.35566 -0.31747,0.82168 -1.0288,3.28654 -1.42052,4.5758 -0.3928,1.28869 -1.51306,2.63387 -2.03662,4.24109 -0.52299,1.60451 -0.80279,1.86711 -0.80279,1.86711 0,0 -0.42888,-0.0748 -0.87763,0.20659 -0.44872,0.27873 -0.46813,0.0175 -0.87869,0.13028 -0.41106,0.11136 -0.54183,0.093 -0.54183,0.093 0,0 -0.33629,-0.67259 -0.57895,-0.67259 -0.24214,0 -0.61557,0.0753 -0.46703,0.83996 0,0 -0.63444,0.35619 -1.00839,0.35619 -0.37504,0 -0.44929,0.0931 -0.65426,0.13077 -0.20556,0.0363 -0.6355,-0.24377 -1.14021,-0.31804 -0.50311,-0.0753 -1.32635,-0.26145 -1.32635,-0.26145 0,0 -0.82107,-0.13133 -1.00834,-0.13133 -0.18619,0 -0.27926,-0.0565 0.44874,-0.29864 0.72859,-0.24213 0.87761,-0.69192 0.46653,-1.14015 -0.41111,-0.44717 -0.39121,-0.42882 -0.37345,-0.76618 0.0189,-0.3363 0.35462,-0.48426 -0.33572,-0.87657 0,0 0.39222,-0.35513 0.18614,-0.6161 -0.20497,-0.26145 -0.50418,-0.61658 -0.29863,-0.85928 0.20557,-0.24484 0.89645,-0.80496 0.57898,-1.0471 -0.31801,-0.24265 -1.51304,-1.10251 -1.75626,-1.28869 -0.24323,-0.18721 -0.31746,-0.31856 -0.24323,-0.58001 0.0764,-0.26047 0.056,-0.39173 -0.13073,-0.80282 -0.18725,-0.41004 -1.13858,-2.07269 -2.68987,-2.50258 -1.55124,-0.42992 -3.82889,-0.65376 -5.9215,0.27873 -2.09254,0.93405 -2.8394,3.79286 -2.3729,5.77354 0.46654,1.98012 1.32635,2.40836 2.1297,3.40063 0.80337,0.98842 1.86769,2.01557 1.66265,2.31527 0,0 -0.24266,0.30026 -0.24266,0.579 0,0.28143 0.0753,0.39335 -0.0753,0.61609 -0.14907,0.22494 -0.18564,0.48639 -0.28033,0.80385 -0.0936,0.31859 -0.6898,0.84103 -1.17675,1.66265 -0.48484,0.82277 -1.60615,1.68206 -1.84828,2.72755 -0.24433,1.04598 -0.57953,2.46597 -0.57953,3.1757 0,0.70968 0.24266,3.17569 0.56012,3.99789 0.31695,0.82162 0.4676,1.62392 0.71026,2.3169 0.24271,0.69036 0.24271,0.69036 0.24271,0.69036 0,0 0.0182,-0.0743 -0.0565,0.20504 -0.0743,0.28086 -0.0926,0.5424 0.0565,0.89802 0.14846,0.35464 0.42988,0.6721 0.54076,1.75462 0.113,1.08436 0.33736,1.27205 0.0764,1.73738 -0.26154,0.46773 -0.44876,0.37357 -0.0571,0.82285 0.3923,0.44774 0.65432,0.65433 0.65432,0.65433 0,0 -0.48642,0.42947 -0.52299,1.04549 -0.0376,0.61647 0.31795,1.12176 0.26097,1.30859 -0.056,0.18501 -0.33524,0.89538 -0.46654,0.89538 -0.13024,0 -0.97122,-0.13033 -0.84049,0.69135 0.13133,0.8222 0.59783,0.65383 0.41056,0.97232 -0.18669,0.31795 -0.72852,0.67188 -0.57895,1.19551 0.14906,0.52213 0.3352,0.50423 0.16732,0.95188 -0.16732,0.44981 -0.63435,1.25273 -0.63435,1.25273 0,0 0.61609,0.3722 0.69085,0.4481 0.0748,0.0742 -0.0748,0.82118 0.0565,0.82118 0.12971,0 0.2233,0 0.2233,0 0,0 -0.0737,0.56167 0.0571,1.1966 0.13073,0.63433 0.27922,1.02674 0.27922,1.02674 0,0 0.14961,1.14007 0.4676,1.68089 0.31693,0.54121 0.6344,1.25202 0.6344,1.25202 0,0 -0.50416,-0.18663 -0.72746,-0.31795 -0.22493,-0.13015 -0.44823,-0.52301 -1.40168,-0.89583 -0.95239,-0.37453 -1.92362,-0.71025 -2.05495,-0.67259 -0.13072,0.0363 -1.49365,0.57881 -1.77509,2.29757 -0.27925,1.71865 -0.46598,3.43674 -0.39173,4.61396 0.0743,1.17785 -0.46649,2.91481 0,3.97903 0.46707,1.06501 1.79342,2.82105 2.83942,2.9701 1.04654,0.15071 1.71864,-0.37283 2.1862,-0.54227 0.4665,-0.16837 0.67259,-0.80168 0.3546,-1.68041 -0.31746,-0.87819 -0.39227,-0.69092 -0.24267,-1.13966 0.15009,-0.4481 0.46756,-0.93469 0.46756,-0.93469 0,0 1.51308,2.61679 3.8478,3.94201 2.33524,1.32587 5.3985,2.69037 7.65891,3.62382 2.26049,0.93469 3.73641,1.94358 5.19299,1.51312 1.45761,-0.42879 2.95183,-1.39937 3.45603,-1.86643 0.50362,-0.46769 0.44876,-1.12096 0.42887,-1.99908 -0.0181,-0.87819 -0.6721,-2.18615 -0.68984,-2.24201 -0.0195,-0.0561 2.35297,0.29969 3.62283,-0.93431 1.27095,-1.23251 1.66374,-1.81163 1.72024,-2.74676 0.0549,-0.93357 0.0363,-1.83 -0.59942,-2.989 -0.63436,-1.15792 -2.16737,-3.34298 -2.83833,-4.46432 -0.67203,-1.12025 -1.75625,-2.25991 -2.59727,-3.21244 -0.84155,-0.95389 -1.30752,-1.2145 -1.77511,-1.66264 -0.46653,-0.44928 -0.57897,-0.48588 -0.41004,-0.69085 0.16737,-0.20656 0.46654,-0.35564 0.48483,-1.14126 0.0195,-0.78443 0.26203,-0.87708 -0.0181,-1.41898 -0.2798,-0.54119 -0.39222,-0.46643 -0.2798,-1.21449 0.11194,-0.74824 0,-0.54227 -0.037,-1.21415 -0.039,-0.6726 -0.0937,-1.02786 -0.1496,-1.83122 -0.0565,-0.8033 0.0743,-3.60466 -0.0377,-5.0257 -0.11246,-1.4188 -0.39226,-4.33303 -0.57949,-5.04328 0,0 0.42989,-1.60666 0.95288,-2.44663 0.52414,-0.84045 0.56123,-1.53294 0.97286,-1.84987 0.40999,-0.31693 0.72745,-0.57896 0.97068,-1.40116 0.24214,-0.82109 0.24214,-1.82997 0.728,-2.42941 0.48536,-0.59668 1.38236,-1.56742 1.30809,-1.94244 -0.0753,-0.3729 -0.52356,-0.61552 -0.98954,-0.33524 -0.46702,0.28038 -0.8598,0.61561 -0.97231,0.93414 -0.11243,0.31799 -0.35513,0.67312 -0.56066,0.54018 -0.205,-0.13068 -0.46707,-0.44602 -0.52357,-0.65376 -0.0549,-0.20495 0.26317,-0.42882 0.26317,-0.42882 0,0 2.12915,-0.87756 2.95184,-1.38228 0.82113,-0.50416 1.64439,-1.40007 2.16681,-2.68989 0.5225,-1.28868 1.66322,-3.88644 1.86823,-7.54755 0.20498,-3.66102 0.0554,-4.63171 0.31746,-5.10094 0.26206,-0.46543 0.48642,-1.11968 0.0383,-2.18458 -0.44929,-1.065376 -0.74847,-1.699176 -1.15902,-2.035471 0,0 -0.2249,-0.429965 -0.2249,-0.916355 0,-0.48532 -0.18564,-1.437225 -0.41002,-1.643815 -0.22384,-0.204465 -0.59886,-0.40999 -0.5596,-0.01815 0.0359,0.393365 0.22383,1.83161 0.0737,1.775115"
         style="display:inline;fill:#99999f;fill-opacity:1;fill-rule:nonzero;stroke:#00000f;stroke-width:0.375;stroke-miterlimit:4;stroke-dasharray:none;stroke-opacity:1"
         id="path5400" />
    </g>
    <g
       id="g16"
       transform="matrix(0.16435848,0,0,0.16435848,153.17109,37.069571)">
      <path
         transform="matrix(5.1965,0,0,5.3726,-738.86,-644.43)"
         d="m 324.45,213.01 a 86.051,83.23 0 1 1 -172.1,0 86.051,83.23 0 1 1 172.1,0 z"
         fill="none"
         stroke="#ff0000"
         stroke-width="20"
         id="path2" />
      <path
         d="M 166.83,166.83 833.16,833.16"
         fill="none"
         stroke="#ff0000"
         stroke-width="100"
         id="path4" />
    </g>
  </g>
  <g
     id="layer5"
     style="display:inline">
    <g
       id="g3275"
       transform="matrix(0.97456165,0,0,0.97456165,-8.9290005,10.104795)">
      <path
         d="m 104.5119,151.63857 c -14.5,5.83 -30.82,0.62 -40.09,-12.8 -9.27,-13.42 -9.27,-31.84 0,-45.259998 9.27,-13.41 25.59,-18.62 40.09,-12.79 -0.11,-23.63 13.32,-44.85 33.72,-53.26 20.39,-8.41 43.46,-2.25 57.89,15.47 9.27,-25.11 31.74,-41.58 56.71,-41.58 24.98,0 47.44,16.47 56.71,41.58 14.83,-14.47 35.96,-18.55 54.5,-10.52 18.53,8.02 31.23,26.76 32.75,48.31 14.51,-5.83 30.83,-0.62 40.1,12.79 9.26,13.419998 9.26,31.839998 0,45.259998 -9.27,13.42 -25.59,18.63 -40.1,12.8 -1.58,22.77 -15.63,42.3 -35.65,49.52 -20.01,7.22 -42.07,0.73 -55.96,-16.46 -11.04,19.89 -30.91,32.06 -52.35,32.06 -21.43,0 -41.3,-12.17 -52.34,-32.06 -10.54,22.95 -40.57,34.16 -67.08,25.03 -26.5,-9.13 -39.44,-35.14 -28.9,-58.09 z"
         fill="none"
         stroke="#000000"
         stroke-linejoin="round"
         stroke-miterlimit="10"
         pointer-events="all"
         id="path3267"
         style="display:inline" />
      <ellipse
         cx="117.60191"
         cy="231.92857"
         rx="26.174095"
         ry="12.752443"
         fill="transparent"
         stroke="#000000"
         pointer-events="all"
         id="ellipse3269"
         style="display:inline;fill:none" />
      <ellipse
         cx="87.071899"
         cy="262.62857"
         rx="16.576927"
         ry="8.5016289"
         fill="transparent"
         stroke="#000000"
         pointer-events="all"
         id="ellipse3271"
         style="display:inline;fill:none" />
      <ellipse
         cx="62.2019"
         cy="285.29855"
         rx="10.469638"
         ry="6.1400652"
         fill="transparent"
         stroke="#000000"
         pointer-events="all"
         id="ellipse3273"
         style="display:inline;fill:none" />
    </g>
  </g>
</svg>
